<?xml version="1.0" encoding="UTF-8" standalone="no"?>
<!DOCTYPE svg PUBLIC "-//W3C//DTD SVG 1.1//EN"
 "http://www.w3.org/Graphics/SVG/1.1/DTD/svg11.dtd">
<!-- Generated by graphviz version 2.40.1 (20161225.0304)
 -->
<!-- Title: dependencies Pages: 1 -->
<svg width="504pt" height="284pt"
 viewBox="0.00 0.00 504.00 284.00" xmlns="http://www.w3.org/2000/svg" xmlns:xlink="http://www.w3.org/1999/xlink">
<g id="graph0" class="graph" transform="scale(1 1) rotate(0) translate(4 280)">
<title>dependencies</title>
<polygon fill="#ffffff" stroke="transparent" points="-4,4 -4,-280 500,-280 500,4 -4,4"/>
<text text-anchor="start" x="227.0091" y="-42.4" font-family="sans-serif" font-weight="bold" font-size="14.00" fill="#000000">Legend</text>
<polygon fill="#ffffb3" stroke="transparent" points="14,-10 14,-30 34,-30 34,-10 14,-10"/>
<text text-anchor="start" x="37.629" y="-15.4" font-family="sans-serif" font-size="14.00" fill="#000000"> &#160;Declarations</text>
<polygon fill="#8dd3c7" stroke="transparent" points="127,-10 127,-30 147,-30 147,-10 127,-10"/>
<text text-anchor="start" x="150.7251" y="-15.4" font-family="sans-serif" font-size="14.00" fill="#000000"> &#160;Module</text>
<polygon fill="#80b1d3" stroke="transparent" points="213,-10 213,-30 233,-30 233,-10 213,-10"/>
<text text-anchor="start" x="236.7812" y="-15.4" font-family="sans-serif" font-size="14.00" fill="#000000"> &#160;Bootstrap</text>
<polygon fill="#fdb462" stroke="transparent" points="310,-10 310,-30 330,-30 330,-10 310,-10"/>
<text text-anchor="start" x="333.6732" y="-15.4" font-family="sans-serif" font-size="14.00" fill="#000000"> &#160;Providers</text>
<polygon fill="#fb8072" stroke="transparent" points="406,-10 406,-30 426,-30 426,-10 406,-10"/>
<text text-anchor="start" x="429.7258" y="-15.4" font-family="sans-serif" font-size="14.00" fill="#000000"> &#160;Exports</text>
<g id="clust1" class="cluster">
<title>cluster_UserPageModule</title>
<polygon fill="none" stroke="#000000" stroke-dasharray="1,5" points="85,-70 85,-268 411,-268 411,-70 85,-70"/>
</g>
<g id="clust2" class="cluster">
<title>cluster_UserPageModule_declarations</title>
<polygon fill="none" stroke="#000000" points="317,-78 317,-130 403,-130 403,-78 317,-78"/>
</g>
<g id="clust4" class="cluster">
<title>cluster_UserPageModule_imports</title>
<polygon fill="none" stroke="#000000" points="93,-78 93,-130 309,-130 309,-78 93,-78"/>
</g>
<g id="clust5" class="cluster">
<title>cluster_UserPageModule_exports</title>
<polygon fill="none" stroke="#000000" points="228,-208 228,-260 318,-260 318,-208 228,-208"/>
</g>
<!-- UserPage -->
<g id="node1" class="node">
<title>UserPage</title>
<polygon fill="#ffffb3" stroke="#000000" points="394.6391,-122 325.3609,-122 325.3609,-86 394.6391,-86 394.6391,-122"/>
<text text-anchor="middle" x="360" y="-99.8" font-family="Times,serif" font-size="14.00" fill="#000000">UserPage</text>
</g>
<!-- UserPageModule -->
<g id="node2" class="node">
<title>UserPageModule</title>
<polygon fill="#8dd3c7" stroke="#000000" points="329.6882,-187 326.6882,-191 305.6882,-191 302.6882,-187 216.3118,-187 216.3118,-151 329.6882,-151 329.6882,-187"/>
<text text-anchor="middle" x="273" y="-164.8" font-family="Times,serif" font-size="14.00" fill="#000000">UserPageModule</text>
</g>
<!-- UserPage&#45;&gt;UserPageModule -->
<g id="edge1" class="edge">
<title>UserPage&#45;&gt;UserPageModule</title>
<path fill="none" stroke="#000000" d="M325.2509,-104C318.1864,-104 312.8673,-104 312.8673,-104 312.8673,-104 312.8673,-140.8939 312.8673,-140.8939"/>
<polygon fill="#000000" stroke="#000000" points="309.3674,-140.8938 312.8673,-150.8939 316.3674,-140.8939 309.3674,-140.8938"/>
</g>
<!-- UserPage  -->
<g id="node4" class="node">
<title>UserPage </title>
<polygon fill="#fb8072" stroke="#000000" points="309.6383,-252 236.3617,-252 236.3617,-216 309.6383,-216 309.6383,-252"/>
<text text-anchor="middle" x="273" y="-229.8" font-family="Times,serif" font-size="14.00" fill="#000000">UserPage </text>
</g>
<!-- UserPageModule&#45;&gt;UserPage  -->
<g id="edge3" class="edge">
<title>UserPageModule&#45;&gt;UserPage </title>
<path fill="none" stroke="#000000" stroke-dasharray="5,2" d="M273,-187.1061C273,-187.1061 273,-205.991 273,-205.991"/>
<polygon fill="#000000" stroke="#000000" points="269.5001,-205.9909 273,-215.991 276.5001,-205.991 269.5001,-205.9909"/>
</g>
<!-- IonicPageModule.forChild(args) -->
<g id="node3" class="node">
<title>IonicPageModule.forChild(args)</title>
<polygon fill="#8dd3c7" stroke="#000000" points="300.6074,-122 297.6074,-126 276.6074,-126 273.6074,-122 101.3926,-122 101.3926,-86 300.6074,-86 300.6074,-122"/>
<text text-anchor="middle" x="201" y="-99.8" font-family="Times,serif" font-size="14.00" fill="#000000">IonicPageModule.forChild(args)</text>
</g>
<!-- IonicPageModule.forChild(args)&#45;&gt;UserPageModule -->
<g id="edge2" class="edge">
<title>IonicPageModule.forChild(args)&#45;&gt;UserPageModule</title>
<path fill="none" stroke="#000000" d="M258.4799,-122.1061C258.4799,-122.1061 258.4799,-140.991 258.4799,-140.991"/>
<polygon fill="#000000" stroke="#000000" points="254.9799,-140.9909 258.4799,-150.991 261.9799,-140.991 254.9799,-140.9909"/>
</g>
</g>
</svg>
