<?xml version="1.0" encoding="UTF-8" standalone="no"?>
<!DOCTYPE svg PUBLIC "-//W3C//DTD SVG 1.1//EN"
 "http://www.w3.org/Graphics/SVG/1.1/DTD/svg11.dtd">
<!-- Generated by graphviz version 2.40.1 (20161225.0304)
 -->
<!-- Title: dependencies Pages: 1 -->
<svg width="504pt" height="284pt"
 viewBox="0.00 0.00 504.00 284.00" xmlns="http://www.w3.org/2000/svg" xmlns:xlink="http://www.w3.org/1999/xlink">
<g id="graph0" class="graph" transform="scale(1 1) rotate(0) translate(4 280)">
<title>dependencies</title>
<polygon fill="#ffffff" stroke="transparent" points="-4,4 -4,-280 500,-280 500,4 -4,4"/>
<text text-anchor="start" x="227.0091" y="-42.4" font-family="sans-serif" font-weight="bold" font-size="14.00" fill="#000000">Legend</text>
<polygon fill="#ffffb3" stroke="transparent" points="14,-10 14,-30 34,-30 34,-10 14,-10"/>
<text text-anchor="start" x="37.629" y="-15.4" font-family="sans-serif" font-size="14.00" fill="#000000"> &#160;Declarations</text>
<polygon fill="#8dd3c7" stroke="transparent" points="127,-10 127,-30 147,-30 147,-10 127,-10"/>
<text text-anchor="start" x="150.7251" y="-15.4" font-family="sans-serif" font-size="14.00" fill="#000000"> &#160;Module</text>
<polygon fill="#80b1d3" stroke="transparent" points="213,-10 213,-30 233,-30 233,-10 213,-10"/>
<text text-anchor="start" x="236.7812" y="-15.4" font-family="sans-serif" font-size="14.00" fill="#000000"> &#160;Bootstrap</text>
<polygon fill="#fdb462" stroke="transparent" points="310,-10 310,-30 330,-30 330,-10 310,-10"/>
<text text-anchor="start" x="333.6732" y="-15.4" font-family="sans-serif" font-size="14.00" fill="#000000"> &#160;Providers</text>
<polygon fill="#fb8072" stroke="transparent" points="406,-10 406,-30 426,-30 426,-10 406,-10"/>
<text text-anchor="start" x="429.7258" y="-15.4" font-family="sans-serif" font-size="14.00" fill="#000000"> &#160;Exports</text>
<g id="clust1" class="cluster">
<title>cluster_TravelListModule</title>
<polygon fill="none" stroke="#000000" stroke-dasharray="1,5" points="83,-70 83,-268 413,-268 413,-70 83,-70"/>
</g>
<g id="clust2" class="cluster">
<title>cluster_TravelListModule_declarations</title>
<polygon fill="none" stroke="#000000" points="315,-78 315,-130 405,-130 405,-78 315,-78"/>
</g>
<g id="clust4" class="cluster">
<title>cluster_TravelListModule_imports</title>
<polygon fill="none" stroke="#000000" points="91,-78 91,-130 307,-130 307,-78 91,-78"/>
</g>
<g id="clust5" class="cluster">
<title>cluster_TravelListModule_exports</title>
<polygon fill="none" stroke="#000000" points="225,-208 225,-260 319,-260 319,-208 225,-208"/>
</g>
<!-- TravelList -->
<g id="node1" class="node">
<title>TravelList</title>
<polygon fill="#ffffb3" stroke="#000000" points="397.3121,-122 322.6879,-122 322.6879,-86 397.3121,-86 397.3121,-122"/>
<text text-anchor="middle" x="360" y="-99.8" font-family="Times,serif" font-size="14.00" fill="#000000">TravelList</text>
</g>
<!-- TravelListModule -->
<g id="node2" class="node">
<title>TravelListModule</title>
<polygon fill="#8dd3c7" stroke="#000000" points="330.8613,-187 327.8613,-191 306.8613,-191 303.8613,-187 213.1387,-187 213.1387,-151 330.8613,-151 330.8613,-187"/>
<text text-anchor="middle" x="272" y="-164.8" font-family="Times,serif" font-size="14.00" fill="#000000">TravelListModule</text>
</g>
<!-- TravelList&#45;&gt;TravelListModule -->
<g id="edge1" class="edge">
<title>TravelList&#45;&gt;TravelListModule</title>
<path fill="none" stroke="#000000" d="M326.8875,-122.1061C326.8875,-122.1061 326.8875,-140.991 326.8875,-140.991"/>
<polygon fill="#000000" stroke="#000000" points="323.3875,-140.9909 326.8875,-150.991 330.3875,-140.991 323.3875,-140.9909"/>
</g>
<!-- TravelList  -->
<g id="node4" class="node">
<title>TravelList </title>
<polygon fill="#fb8072" stroke="#000000" points="310.8116,-252 233.1884,-252 233.1884,-216 310.8116,-216 310.8116,-252"/>
<text text-anchor="middle" x="272" y="-229.8" font-family="Times,serif" font-size="14.00" fill="#000000">TravelList </text>
</g>
<!-- TravelListModule&#45;&gt;TravelList  -->
<g id="edge3" class="edge">
<title>TravelListModule&#45;&gt;TravelList </title>
<path fill="none" stroke="#000000" stroke-dasharray="5,2" d="M272,-187.1061C272,-187.1061 272,-205.991 272,-205.991"/>
<polygon fill="#000000" stroke="#000000" points="268.5001,-205.9909 272,-215.991 275.5001,-205.991 268.5001,-205.9909"/>
</g>
<!-- IonicPageModule.forChild(args) -->
<g id="node3" class="node">
<title>IonicPageModule.forChild(args)</title>
<polygon fill="#8dd3c7" stroke="#000000" points="298.6074,-122 295.6074,-126 274.6074,-126 271.6074,-122 99.3926,-122 99.3926,-86 298.6074,-86 298.6074,-122"/>
<text text-anchor="middle" x="199" y="-99.8" font-family="Times,serif" font-size="14.00" fill="#000000">IonicPageModule.forChild(args)</text>
</g>
<!-- IonicPageModule.forChild(args)&#45;&gt;TravelListModule -->
<g id="edge2" class="edge">
<title>IonicPageModule.forChild(args)&#45;&gt;TravelListModule</title>
<path fill="none" stroke="#000000" d="M255.8116,-122.1061C255.8116,-122.1061 255.8116,-140.991 255.8116,-140.991"/>
<polygon fill="#000000" stroke="#000000" points="252.3116,-140.9909 255.8116,-150.991 259.3116,-140.991 252.3116,-140.9909"/>
</g>
</g>
</svg>
