<?xml version="1.0" encoding="UTF-8" standalone="no"?>
<!DOCTYPE svg PUBLIC "-//W3C//DTD SVG 1.1//EN"
 "http://www.w3.org/Graphics/SVG/1.1/DTD/svg11.dtd">
<!-- Generated by graphviz version 2.40.1 (20161225.0304)
 -->
<!-- Title: dependencies Pages: 1 -->
<svg width="504pt" height="284pt"
 viewBox="0.00 0.00 504.00 284.00" xmlns="http://www.w3.org/2000/svg" xmlns:xlink="http://www.w3.org/1999/xlink">
<g id="graph0" class="graph" transform="scale(1 1) rotate(0) translate(4 280)">
<title>dependencies</title>
<polygon fill="#ffffff" stroke="transparent" points="-4,4 -4,-280 500,-280 500,4 -4,4"/>
<text text-anchor="start" x="227.0091" y="-42.4" font-family="sans-serif" font-weight="bold" font-size="14.00" fill="#000000">Legend</text>
<polygon fill="#ffffb3" stroke="transparent" points="14,-10 14,-30 34,-30 34,-10 14,-10"/>
<text text-anchor="start" x="37.629" y="-15.4" font-family="sans-serif" font-size="14.00" fill="#000000"> &#160;Declarations</text>
<polygon fill="#8dd3c7" stroke="transparent" points="127,-10 127,-30 147,-30 147,-10 127,-10"/>
<text text-anchor="start" x="150.7251" y="-15.4" font-family="sans-serif" font-size="14.00" fill="#000000"> &#160;Module</text>
<polygon fill="#80b1d3" stroke="transparent" points="213,-10 213,-30 233,-30 233,-10 213,-10"/>
<text text-anchor="start" x="236.7812" y="-15.4" font-family="sans-serif" font-size="14.00" fill="#000000"> &#160;Bootstrap</text>
<polygon fill="#fdb462" stroke="transparent" points="310,-10 310,-30 330,-30 330,-10 310,-10"/>
<text text-anchor="start" x="333.6732" y="-15.4" font-family="sans-serif" font-size="14.00" fill="#000000"> &#160;Providers</text>
<polygon fill="#fb8072" stroke="transparent" points="406,-10 406,-30 426,-30 426,-10 406,-10"/>
<text text-anchor="start" x="429.7258" y="-15.4" font-family="sans-serif" font-size="14.00" fill="#000000"> &#160;Exports</text>
<g id="clust1" class="cluster">
<title>cluster_UserEditPageModule</title>
<polygon fill="none" stroke="#000000" stroke-dasharray="1,5" points="74,-70 74,-268 422,-268 422,-70 74,-70"/>
</g>
<g id="clust2" class="cluster">
<title>cluster_UserEditPageModule_declarations</title>
<polygon fill="none" stroke="#000000" points="306,-78 306,-130 414,-130 414,-78 306,-78"/>
</g>
<g id="clust4" class="cluster">
<title>cluster_UserEditPageModule_imports</title>
<polygon fill="none" stroke="#000000" points="82,-78 82,-130 298,-130 298,-78 82,-78"/>
</g>
<g id="clust5" class="cluster">
<title>cluster_UserEditPageModule_exports</title>
<polygon fill="none" stroke="#000000" points="212,-208 212,-260 324,-260 324,-208 212,-208"/>
</g>
<!-- UserEditPage -->
<g id="node1" class="node">
<title>UserEditPage</title>
<polygon fill="#ffffb3" stroke="#000000" points="406.472,-122 313.528,-122 313.528,-86 406.472,-86 406.472,-122"/>
<text text-anchor="middle" x="360" y="-99.8" font-family="Times,serif" font-size="14.00" fill="#000000">UserEditPage</text>
</g>
<!-- UserEditPageModule -->
<g id="node2" class="node">
<title>UserEditPageModule</title>
<polygon fill="#8dd3c7" stroke="#000000" points="336.0226,-187 333.0226,-191 312.0226,-191 309.0226,-187 199.9774,-187 199.9774,-151 336.0226,-151 336.0226,-187"/>
<text text-anchor="middle" x="268" y="-164.8" font-family="Times,serif" font-size="14.00" fill="#000000">UserEditPageModule</text>
</g>
<!-- UserEditPage&#45;&gt;UserEditPageModule -->
<g id="edge1" class="edge">
<title>UserEditPage&#45;&gt;UserEditPageModule</title>
<path fill="none" stroke="#000000" d="M324.8875,-122.1061C324.8875,-122.1061 324.8875,-140.991 324.8875,-140.991"/>
<polygon fill="#000000" stroke="#000000" points="321.3875,-140.9909 324.8875,-150.991 328.3875,-140.991 321.3875,-140.9909"/>
</g>
<!-- UserEditPage  -->
<g id="node4" class="node">
<title>UserEditPage </title>
<polygon fill="#fb8072" stroke="#000000" points="316.4732,-252 219.5268,-252 219.5268,-216 316.4732,-216 316.4732,-252"/>
<text text-anchor="middle" x="268" y="-229.8" font-family="Times,serif" font-size="14.00" fill="#000000">UserEditPage </text>
</g>
<!-- UserEditPageModule&#45;&gt;UserEditPage  -->
<g id="edge3" class="edge">
<title>UserEditPageModule&#45;&gt;UserEditPage </title>
<path fill="none" stroke="#000000" stroke-dasharray="5,2" d="M268,-187.1061C268,-187.1061 268,-205.991 268,-205.991"/>
<polygon fill="#000000" stroke="#000000" points="264.5001,-205.9909 268,-215.991 271.5001,-205.991 264.5001,-205.9909"/>
</g>
<!-- IonicPageModule.forChild(args) -->
<g id="node3" class="node">
<title>IonicPageModule.forChild(args)</title>
<polygon fill="#8dd3c7" stroke="#000000" points="289.6074,-122 286.6074,-126 265.6074,-126 262.6074,-122 90.3926,-122 90.3926,-86 289.6074,-86 289.6074,-122"/>
<text text-anchor="middle" x="190" y="-99.8" font-family="Times,serif" font-size="14.00" fill="#000000">IonicPageModule.forChild(args)</text>
</g>
<!-- IonicPageModule.forChild(args)&#45;&gt;UserEditPageModule -->
<g id="edge2" class="edge">
<title>IonicPageModule.forChild(args)&#45;&gt;UserEditPageModule</title>
<path fill="none" stroke="#000000" d="M244.6464,-122.1061C244.6464,-122.1061 244.6464,-140.991 244.6464,-140.991"/>
<polygon fill="#000000" stroke="#000000" points="241.1465,-140.9909 244.6464,-150.991 248.1465,-140.991 241.1465,-140.9909"/>
</g>
</g>
</svg>
