<?xml version="1.0" encoding="UTF-8" standalone="no"?>
<!DOCTYPE svg PUBLIC "-//W3C//DTD SVG 1.1//EN"
 "http://www.w3.org/Graphics/SVG/1.1/DTD/svg11.dtd">
<!-- Generated by graphviz version 2.40.1 (20161225.0304)
 -->
<!-- Title: dependencies Pages: 1 -->
<svg width="2589pt" height="284pt"
 viewBox="0.00 0.00 2589.00 284.00" xmlns="http://www.w3.org/2000/svg" xmlns:xlink="http://www.w3.org/1999/xlink">
<g id="graph0" class="graph" transform="scale(1 1) rotate(0) translate(4 280)">
<title>dependencies</title>
<polygon fill="#ffffff" stroke="transparent" points="-4,4 -4,-280 2585,-280 2585,4 -4,4"/>
<text text-anchor="start" x="1269.5091" y="-42.4" font-family="sans-serif" font-weight="bold" font-size="14.00" fill="#000000">Legend</text>
<polygon fill="#ffffb3" stroke="transparent" points="1056.5,-10 1056.5,-30 1076.5,-30 1076.5,-10 1056.5,-10"/>
<text text-anchor="start" x="1080.129" y="-15.4" font-family="sans-serif" font-size="14.00" fill="#000000"> &#160;Declarations</text>
<polygon fill="#8dd3c7" stroke="transparent" points="1169.5,-10 1169.5,-30 1189.5,-30 1189.5,-10 1169.5,-10"/>
<text text-anchor="start" x="1193.2251" y="-15.4" font-family="sans-serif" font-size="14.00" fill="#000000"> &#160;Module</text>
<polygon fill="#80b1d3" stroke="transparent" points="1255.5,-10 1255.5,-30 1275.5,-30 1275.5,-10 1255.5,-10"/>
<text text-anchor="start" x="1279.2812" y="-15.4" font-family="sans-serif" font-size="14.00" fill="#000000"> &#160;Bootstrap</text>
<polygon fill="#fdb462" stroke="transparent" points="1352.5,-10 1352.5,-30 1372.5,-30 1372.5,-10 1352.5,-10"/>
<text text-anchor="start" x="1376.1732" y="-15.4" font-family="sans-serif" font-size="14.00" fill="#000000"> &#160;Providers</text>
<polygon fill="#fb8072" stroke="transparent" points="1448.5,-10 1448.5,-30 1468.5,-30 1468.5,-10 1448.5,-10"/>
<text text-anchor="start" x="1472.2258" y="-15.4" font-family="sans-serif" font-size="14.00" fill="#000000"> &#160;Exports</text>
<g id="clust1" class="cluster">
<title>cluster_AppModule</title>
<polygon fill="none" stroke="#000000" stroke-dasharray="1,5" points="8,-70 8,-268 2573,-268 2573,-70 8,-70"/>
</g>
<g id="clust2" class="cluster">
<title>cluster_AppModule_declarations</title>
<polygon fill="none" stroke="#000000" points="1840,-78 1840,-130 2565,-130 2565,-78 1840,-78"/>
</g>
<g id="clust11" class="cluster">
<title>cluster_AppModule_imports</title>
<polygon fill="none" stroke="#000000" points="1071,-78 1071,-130 1832,-130 1832,-78 1071,-78"/>
</g>
<g id="clust13" class="cluster">
<title>cluster_AppModule_bootstrap</title>
<polygon fill="none" stroke="#000000" points="1727,-208 1727,-260 1815,-260 1815,-208 1727,-208"/>
</g>
<g id="clust14" class="cluster">
<title>cluster_AppModule_providers</title>
<polygon fill="none" stroke="#000000" points="16,-78 16,-130 1063,-130 1063,-78 16,-78"/>
</g>
<!-- MyApp -->
<g id="node1" class="node">
<title>MyApp</title>
<polygon fill="#ffffb3" stroke="#000000" points="2556.5529,-122 2497.4471,-122 2497.4471,-86 2556.5529,-86 2556.5529,-122"/>
<text text-anchor="middle" x="2527" y="-99.8" font-family="Times,serif" font-size="14.00" fill="#000000">MyApp</text>
</g>
<!-- AppModule -->
<g id="node9" class="node">
<title>AppModule</title>
<polygon fill="#8dd3c7" stroke="#000000" points="1812.6571,-187 1809.6571,-191 1788.6571,-191 1785.6571,-187 1729.3429,-187 1729.3429,-151 1812.6571,-151 1812.6571,-187"/>
<text text-anchor="middle" x="1771" y="-164.8" font-family="Times,serif" font-size="14.00" fill="#000000">AppModule</text>
</g>
<!-- MyApp&#45;&gt;AppModule -->
<g id="edge1" class="edge">
<title>MyApp&#45;&gt;AppModule</title>
<path fill="none" stroke="#000000" d="M2527,-122.3228C2527,-145.6602 2527,-183 2527,-183 2527,-183 1822.7227,-183 1822.7227,-183"/>
<polygon fill="#000000" stroke="#000000" points="1822.7227,-179.5001 1812.7227,-183 1822.7227,-186.5001 1822.7227,-179.5001"/>
</g>
<!-- TabsPage -->
<g id="node2" class="node">
<title>TabsPage</title>
<polygon fill="#ffffb3" stroke="#000000" points="2479.4249,-122 2408.5751,-122 2408.5751,-86 2479.4249,-86 2479.4249,-122"/>
<text text-anchor="middle" x="2444" y="-99.8" font-family="Times,serif" font-size="14.00" fill="#000000">TabsPage</text>
</g>
<!-- TabsPage&#45;&gt;AppModule -->
<g id="edge2" class="edge">
<title>TabsPage&#45;&gt;AppModule</title>
<path fill="none" stroke="#000000" d="M2444,-122.1554C2444,-144.3519 2444,-179 2444,-179 2444,-179 1822.8449,-179 1822.8449,-179"/>
<polygon fill="#000000" stroke="#000000" points="1822.8449,-175.5001 1812.8449,-179 1822.8449,-182.5001 1822.8449,-175.5001"/>
</g>
<!-- Connexion -->
<g id="node3" class="node">
<title>Connexion</title>
<polygon fill="#ffffb3" stroke="#000000" points="2390.9431,-122 2313.0569,-122 2313.0569,-86 2390.9431,-86 2390.9431,-122"/>
<text text-anchor="middle" x="2352" y="-99.8" font-family="Times,serif" font-size="14.00" fill="#000000">Connexion</text>
</g>
<!-- Connexion&#45;&gt;AppModule -->
<g id="edge3" class="edge">
<title>Connexion&#45;&gt;AppModule</title>
<path fill="none" stroke="#000000" d="M2352,-122.2843C2352,-143.3211 2352,-175 2352,-175 2352,-175 1822.7841,-175 1822.7841,-175"/>
<polygon fill="#000000" stroke="#000000" points="1822.7841,-171.5001 1812.7841,-175 1822.7841,-178.5001 1822.7841,-171.5001"/>
</g>
<!-- TravelList -->
<g id="node4" class="node">
<title>TravelList</title>
<polygon fill="#ffffb3" stroke="#000000" points="2295.3121,-122 2220.6879,-122 2220.6879,-86 2295.3121,-86 2295.3121,-122"/>
<text text-anchor="middle" x="2258" y="-99.8" font-family="Times,serif" font-size="14.00" fill="#000000">TravelList</text>
</g>
<!-- TravelList&#45;&gt;AppModule -->
<g id="edge4" class="edge">
<title>TravelList&#45;&gt;AppModule</title>
<path fill="none" stroke="#000000" d="M2258,-122.308C2258,-142.1455 2258,-171 2258,-171 2258,-171 1822.9428,-171 1822.9428,-171"/>
<polygon fill="#000000" stroke="#000000" points="1822.9429,-167.5001 1812.9428,-171 1822.9428,-174.5001 1822.9429,-167.5001"/>
</g>
<!-- TravelAdd -->
<g id="node5" class="node">
<title>TravelAdd</title>
<polygon fill="#ffffb3" stroke="#000000" points="2203.1404,-122 2126.8596,-122 2126.8596,-86 2203.1404,-86 2203.1404,-122"/>
<text text-anchor="middle" x="2165" y="-99.8" font-family="Times,serif" font-size="14.00" fill="#000000">TravelAdd</text>
</g>
<!-- TravelAdd&#45;&gt;AppModule -->
<g id="edge5" class="edge">
<title>TravelAdd&#45;&gt;AppModule</title>
<path fill="none" stroke="#000000" d="M2165,-122.2222C2165,-140.8285 2165,-167 2165,-167 2165,-167 1822.7919,-167 1822.7919,-167"/>
<polygon fill="#000000" stroke="#000000" points="1822.7919,-163.5001 1812.7919,-167 1822.7919,-170.5001 1822.7919,-163.5001"/>
</g>
<!-- UserPage -->
<g id="node6" class="node">
<title>UserPage</title>
<polygon fill="#ffffb3" stroke="#000000" points="2108.6391,-122 2039.3609,-122 2039.3609,-86 2108.6391,-86 2108.6391,-122"/>
<text text-anchor="middle" x="2074" y="-99.8" font-family="Times,serif" font-size="14.00" fill="#000000">UserPage</text>
</g>
<!-- UserPage&#45;&gt;AppModule -->
<g id="edge6" class="edge">
<title>UserPage&#45;&gt;AppModule</title>
<path fill="none" stroke="#000000" d="M2074,-122.0225C2074,-139.3734 2074,-163 2074,-163 2074,-163 1822.8127,-163 1822.8127,-163"/>
<polygon fill="#000000" stroke="#000000" points="1822.8128,-159.5001 1812.8127,-163 1822.8127,-166.5001 1822.8128,-159.5001"/>
</g>
<!-- UserEditPage -->
<g id="node7" class="node">
<title>UserEditPage</title>
<polygon fill="#ffffb3" stroke="#000000" points="2021.472,-122 1928.528,-122 1928.528,-86 2021.472,-86 2021.472,-122"/>
<text text-anchor="middle" x="1975" y="-99.8" font-family="Times,serif" font-size="14.00" fill="#000000">UserEditPage</text>
</g>
<!-- UserEditPage&#45;&gt;AppModule -->
<g id="edge7" class="edge">
<title>UserEditPage&#45;&gt;AppModule</title>
<path fill="none" stroke="#000000" d="M1975,-122.0091C1975,-138.0494 1975,-159 1975,-159 1975,-159 1822.7747,-159 1822.7747,-159"/>
<polygon fill="#000000" stroke="#000000" points="1822.7747,-155.5001 1812.7747,-159 1822.7747,-162.5001 1822.7747,-155.5001"/>
</g>
<!-- Register -->
<g id="node8" class="node">
<title>Register</title>
<polygon fill="#ffffb3" stroke="#000000" points="1910.1532,-122 1847.8468,-122 1847.8468,-86 1910.1532,-86 1910.1532,-122"/>
<text text-anchor="middle" x="1879" y="-99.8" font-family="Times,serif" font-size="14.00" fill="#000000">Register</text>
</g>
<!-- Register&#45;&gt;AppModule -->
<g id="edge8" class="edge">
<title>Register&#45;&gt;AppModule</title>
<path fill="none" stroke="#000000" d="M1879,-122.1243C1879,-136.7832 1879,-155 1879,-155 1879,-155 1822.7556,-155 1822.7556,-155"/>
<polygon fill="#000000" stroke="#000000" points="1822.7557,-151.5001 1812.7556,-155 1822.7556,-158.5001 1822.7557,-151.5001"/>
</g>
<!-- IonicApp  -->
<g id="node14" class="node">
<title>IonicApp </title>
<polygon fill="#80b1d3" stroke="#000000" points="1807.3734,-252 1734.6266,-252 1734.6266,-216 1807.3734,-216 1807.3734,-252"/>
<text text-anchor="middle" x="1771" y="-229.8" font-family="Times,serif" font-size="14.00" fill="#000000">IonicApp </text>
</g>
<!-- AppModule&#45;&gt;IonicApp  -->
<g id="edge13" class="edge">
<title>AppModule&#45;&gt;IonicApp </title>
<path fill="none" stroke="#000000" stroke-dasharray="1,5" d="M1771,-187.1061C1771,-187.1061 1771,-205.991 1771,-205.991"/>
<polygon fill="#000000" stroke="#000000" points="1767.5001,-205.9909 1771,-215.991 1774.5001,-205.991 1767.5001,-205.9909"/>
</g>
<!-- BrowserModule -->
<g id="node10" class="node">
<title>BrowserModule</title>
<polygon fill="#8dd3c7" stroke="#000000" points="1824.4734,-122 1821.4734,-126 1800.4734,-126 1797.4734,-122 1717.5266,-122 1717.5266,-86 1824.4734,-86 1824.4734,-122"/>
<text text-anchor="middle" x="1771" y="-99.8" font-family="Times,serif" font-size="14.00" fill="#000000">BrowserModule</text>
</g>
<!-- BrowserModule&#45;&gt;AppModule -->
<g id="edge9" class="edge">
<title>BrowserModule&#45;&gt;AppModule</title>
<path fill="none" stroke="#000000" d="M1771,-122.1061C1771,-122.1061 1771,-140.991 1771,-140.991"/>
<polygon fill="#000000" stroke="#000000" points="1767.5001,-140.9909 1771,-150.991 1774.5001,-140.991 1767.5001,-140.9909"/>
</g>
<!-- IonicModule.forRoot(args) -->
<g id="node11" class="node">
<title>IonicModule.forRoot(args)</title>
<polygon fill="#8dd3c7" stroke="#000000" points="1700.005,-122 1697.005,-126 1676.005,-126 1673.005,-122 1531.995,-122 1531.995,-86 1700.005,-86 1700.005,-122"/>
<text text-anchor="middle" x="1616" y="-99.8" font-family="Times,serif" font-size="14.00" fill="#000000">IonicModule.forRoot(args)</text>
</g>
<!-- IonicModule.forRoot(args)&#45;&gt;AppModule -->
<g id="edge10" class="edge">
<title>IonicModule.forRoot(args)&#45;&gt;AppModule</title>
<path fill="none" stroke="#000000" d="M1616,-122.1243C1616,-136.7832 1616,-155 1616,-155 1616,-155 1719.0548,-155 1719.0548,-155"/>
<polygon fill="#000000" stroke="#000000" points="1719.0548,-158.5001 1729.0548,-155 1719.0547,-151.5001 1719.0548,-158.5001"/>
</g>
<!-- AngularFireModule.initializeApp(args) -->
<g id="node12" class="node">
<title>AngularFireModule.initializeApp(args)</title>
<polygon fill="#8dd3c7" stroke="#000000" points="1513.7057,-122 1510.7057,-126 1489.7057,-126 1486.7057,-122 1276.2943,-122 1276.2943,-86 1513.7057,-86 1513.7057,-122"/>
<text text-anchor="middle" x="1395" y="-99.8" font-family="Times,serif" font-size="14.00" fill="#000000">AngularFireModule.initializeApp(args)</text>
</g>
<!-- AngularFireModule.initializeApp(args)&#45;&gt;AppModule -->
<g id="edge11" class="edge">
<title>AngularFireModule.initializeApp(args)&#45;&gt;AppModule</title>
<path fill="none" stroke="#000000" d="M1395,-122.0091C1395,-138.0494 1395,-159 1395,-159 1395,-159 1719.3248,-159 1719.3248,-159"/>
<polygon fill="#000000" stroke="#000000" points="1719.3248,-162.5001 1729.3248,-159 1719.3248,-155.5001 1719.3248,-162.5001"/>
</g>
<!-- AngularFireDatabaseModule -->
<g id="node13" class="node">
<title>AngularFireDatabaseModule</title>
<polygon fill="#8dd3c7" stroke="#000000" points="1258.771,-122 1255.771,-126 1234.771,-126 1231.771,-122 1079.229,-122 1079.229,-86 1258.771,-86 1258.771,-122"/>
<text text-anchor="middle" x="1169" y="-99.8" font-family="Times,serif" font-size="14.00" fill="#000000">AngularFireDatabaseModule</text>
</g>
<!-- AngularFireDatabaseModule&#45;&gt;AppModule -->
<g id="edge12" class="edge">
<title>AngularFireDatabaseModule&#45;&gt;AppModule</title>
<path fill="none" stroke="#000000" d="M1169,-122.0225C1169,-139.3734 1169,-163 1169,-163 1169,-163 1719.1465,-163 1719.1465,-163"/>
<polygon fill="#000000" stroke="#000000" points="1719.1465,-166.5001 1729.1465,-163 1719.1464,-159.5001 1719.1465,-166.5001"/>
</g>
<!-- StatusBar -->
<g id="node15" class="node">
<title>StatusBar</title>
<ellipse fill="#fdb462" stroke="#000000" cx="1006" cy="-104" rx="48.6694" ry="18"/>
<text text-anchor="middle" x="1006" y="-99.8" font-family="Times,serif" font-size="14.00" fill="#000000">StatusBar</text>
</g>
<!-- StatusBar&#45;&gt;AppModule -->
<g id="edge14" class="edge">
<title>StatusBar&#45;&gt;AppModule</title>
<path fill="none" stroke="#000000" d="M1006,-122.2222C1006,-140.8285 1006,-167 1006,-167 1006,-167 1719.327,-167 1719.327,-167"/>
<polygon fill="#000000" stroke="#000000" points="1719.327,-170.5001 1729.327,-167 1719.327,-163.5001 1719.327,-170.5001"/>
</g>
<!-- SplashScreen -->
<g id="node16" class="node">
<title>SplashScreen</title>
<ellipse fill="#fdb462" stroke="#000000" cx="876" cy="-104" rx="63.1189" ry="18"/>
<text text-anchor="middle" x="876" y="-99.8" font-family="Times,serif" font-size="14.00" fill="#000000">SplashScreen</text>
</g>
<!-- SplashScreen&#45;&gt;AppModule -->
<g id="edge15" class="edge">
<title>SplashScreen&#45;&gt;AppModule</title>
<path fill="none" stroke="#000000" d="M876,-122.308C876,-142.1455 876,-171 876,-171 876,-171 1719.3305,-171 1719.3305,-171"/>
<polygon fill="#000000" stroke="#000000" points="1719.3305,-174.5001 1729.3305,-171 1719.3304,-167.5001 1719.3305,-174.5001"/>
</g>
<!-- { provide: ErrorHandler, useClass: IonicErrorHandler } -->
<g id="node17" class="node">
<title>{ provide: ErrorHandler, useClass: IonicErrorHandler }</title>
<ellipse fill="#fdb462" stroke="#000000" cx="569" cy="-104" rx="226.4736" ry="18"/>
<text text-anchor="middle" x="569" y="-99.8" font-family="Times,serif" font-size="14.00" fill="#000000">{ provide: ErrorHandler, useClass: IonicErrorHandler }</text>
</g>
<!-- { provide: ErrorHandler, useClass: IonicErrorHandler }&#45;&gt;AppModule -->
<g id="edge16" class="edge">
<title>{ provide: ErrorHandler, useClass: IonicErrorHandler }&#45;&gt;AppModule</title>
<path fill="none" stroke="#000000" d="M569,-122.2843C569,-143.3211 569,-175 569,-175 569,-175 1719.2754,-175 1719.2754,-175"/>
<polygon fill="#000000" stroke="#000000" points="1719.2754,-178.5001 1729.2754,-175 1719.2753,-171.5001 1719.2754,-178.5001"/>
</g>
<!-- AngularFireAuth -->
<g id="node18" class="node">
<title>AngularFireAuth</title>
<ellipse fill="#fdb462" stroke="#000000" cx="247" cy="-104" rx="77.5878" ry="18"/>
<text text-anchor="middle" x="247" y="-99.8" font-family="Times,serif" font-size="14.00" fill="#000000">AngularFireAuth</text>
</g>
<!-- AngularFireAuth&#45;&gt;AppModule -->
<g id="edge17" class="edge">
<title>AngularFireAuth&#45;&gt;AppModule</title>
<path fill="none" stroke="#000000" d="M247,-122.1554C247,-144.3519 247,-179 247,-179 247,-179 1719.0485,-179 1719.0485,-179"/>
<polygon fill="#000000" stroke="#000000" points="1719.0485,-182.5001 1729.0485,-179 1719.0484,-175.5001 1719.0485,-182.5001"/>
</g>
<!-- AuthProvider -->
<g id="node19" class="node">
<title>AuthProvider</title>
<ellipse fill="#fdb462" stroke="#000000" cx="88" cy="-104" rx="63.7045" ry="18"/>
<text text-anchor="middle" x="88" y="-99.8" font-family="Times,serif" font-size="14.00" fill="#000000">AuthProvider</text>
</g>
<!-- AuthProvider&#45;&gt;AppModule -->
<g id="edge18" class="edge">
<title>AuthProvider&#45;&gt;AppModule</title>
<path fill="none" stroke="#000000" d="M88,-122.3228C88,-145.6602 88,-183 88,-183 88,-183 1718.9776,-183 1718.9776,-183"/>
<polygon fill="#000000" stroke="#000000" points="1718.9777,-186.5001 1728.9776,-183 1718.9776,-179.5001 1718.9777,-186.5001"/>
</g>
</g>
</svg>
