<?xml version="1.0" encoding="UTF-8" standalone="no"?>
<!DOCTYPE svg PUBLIC "-//W3C//DTD SVG 1.1//EN"
 "http://www.w3.org/Graphics/SVG/1.1/DTD/svg11.dtd">
<!-- Generated by graphviz version 2.40.1 (20161225.0304)
 -->
<!-- Title: dependencies Pages: 1 -->
<svg width="2743pt" height="284pt"
 viewBox="0.00 0.00 2743.00 284.00" xmlns="http://www.w3.org/2000/svg" xmlns:xlink="http://www.w3.org/1999/xlink">
<g id="graph0" class="graph" transform="scale(1 1) rotate(0) translate(4 280)">
<title>dependencies</title>
<polygon fill="#ffffff" stroke="transparent" points="-4,4 -4,-280 2739,-280 2739,4 -4,4"/>
<text text-anchor="start" x="1346.5091" y="-42.4" font-family="sans-serif" font-weight="bold" font-size="14.00" fill="#000000">Legend</text>
<polygon fill="#ffffb3" stroke="transparent" points="1133.5,-10 1133.5,-30 1153.5,-30 1153.5,-10 1133.5,-10"/>
<text text-anchor="start" x="1157.129" y="-15.4" font-family="sans-serif" font-size="14.00" fill="#000000"> &#160;Declarations</text>
<polygon fill="#8dd3c7" stroke="transparent" points="1246.5,-10 1246.5,-30 1266.5,-30 1266.5,-10 1246.5,-10"/>
<text text-anchor="start" x="1270.2251" y="-15.4" font-family="sans-serif" font-size="14.00" fill="#000000"> &#160;Module</text>
<polygon fill="#80b1d3" stroke="transparent" points="1332.5,-10 1332.5,-30 1352.5,-30 1352.5,-10 1332.5,-10"/>
<text text-anchor="start" x="1356.2812" y="-15.4" font-family="sans-serif" font-size="14.00" fill="#000000"> &#160;Bootstrap</text>
<polygon fill="#fdb462" stroke="transparent" points="1429.5,-10 1429.5,-30 1449.5,-30 1449.5,-10 1429.5,-10"/>
<text text-anchor="start" x="1453.1732" y="-15.4" font-family="sans-serif" font-size="14.00" fill="#000000"> &#160;Providers</text>
<polygon fill="#fb8072" stroke="transparent" points="1525.5,-10 1525.5,-30 1545.5,-30 1545.5,-10 1525.5,-10"/>
<text text-anchor="start" x="1549.2258" y="-15.4" font-family="sans-serif" font-size="14.00" fill="#000000"> &#160;Exports</text>
<g id="clust1" class="cluster">
<title>cluster_AppModule</title>
<polygon fill="none" stroke="#000000" stroke-dasharray="1,5" points="8,-70 8,-268 2727,-268 2727,-70 8,-70"/>
</g>
<g id="clust2" class="cluster">
<title>cluster_AppModule_declarations</title>
<polygon fill="none" stroke="#000000" points="1994,-78 1994,-130 2719,-130 2719,-78 1994,-78"/>
</g>
<g id="clust11" class="cluster">
<title>cluster_AppModule_imports</title>
<polygon fill="none" stroke="#000000" points="1225,-78 1225,-130 1986,-130 1986,-78 1225,-78"/>
</g>
<g id="clust13" class="cluster">
<title>cluster_AppModule_bootstrap</title>
<polygon fill="none" stroke="#000000" points="1803,-208 1803,-260 1891,-260 1891,-208 1803,-208"/>
</g>
<g id="clust14" class="cluster">
<title>cluster_AppModule_providers</title>
<polygon fill="none" stroke="#000000" points="16,-78 16,-130 1217,-130 1217,-78 16,-78"/>
</g>
<!-- MyApp -->
<g id="node1" class="node">
<title>MyApp</title>
<polygon fill="#ffffb3" stroke="#000000" points="2710.5529,-122 2651.4471,-122 2651.4471,-86 2710.5529,-86 2710.5529,-122"/>
<text text-anchor="middle" x="2681" y="-99.8" font-family="Times,serif" font-size="14.00" fill="#000000">MyApp</text>
</g>
<!-- AppModule -->
<g id="node9" class="node">
<title>AppModule</title>
<polygon fill="#8dd3c7" stroke="#000000" points="1888.6571,-187 1885.6571,-191 1864.6571,-191 1861.6571,-187 1805.3429,-187 1805.3429,-151 1888.6571,-151 1888.6571,-187"/>
<text text-anchor="middle" x="1847" y="-164.8" font-family="Times,serif" font-size="14.00" fill="#000000">AppModule</text>
</g>
<!-- MyApp&#45;&gt;AppModule -->
<g id="edge1" class="edge">
<title>MyApp&#45;&gt;AppModule</title>
<path fill="none" stroke="#000000" d="M2681,-122.3228C2681,-145.6602 2681,-183 2681,-183 2681,-183 1898.9297,-183 1898.9297,-183"/>
<polygon fill="#000000" stroke="#000000" points="1898.9298,-179.5001 1888.9297,-183 1898.9297,-186.5001 1898.9298,-179.5001"/>
</g>
<!-- TabsPage -->
<g id="node2" class="node">
<title>TabsPage</title>
<polygon fill="#ffffb3" stroke="#000000" points="2633.4249,-122 2562.5751,-122 2562.5751,-86 2633.4249,-86 2633.4249,-122"/>
<text text-anchor="middle" x="2598" y="-99.8" font-family="Times,serif" font-size="14.00" fill="#000000">TabsPage</text>
</g>
<!-- TabsPage&#45;&gt;AppModule -->
<g id="edge2" class="edge">
<title>TabsPage&#45;&gt;AppModule</title>
<path fill="none" stroke="#000000" d="M2598,-122.1554C2598,-144.3519 2598,-179 2598,-179 2598,-179 1898.7161,-179 1898.7161,-179"/>
<polygon fill="#000000" stroke="#000000" points="1898.7162,-175.5001 1888.7161,-179 1898.7161,-182.5001 1898.7162,-175.5001"/>
</g>
<!-- Connexion -->
<g id="node3" class="node">
<title>Connexion</title>
<polygon fill="#ffffb3" stroke="#000000" points="2544.9431,-122 2467.0569,-122 2467.0569,-86 2544.9431,-86 2544.9431,-122"/>
<text text-anchor="middle" x="2506" y="-99.8" font-family="Times,serif" font-size="14.00" fill="#000000">Connexion</text>
</g>
<!-- Connexion&#45;&gt;AppModule -->
<g id="edge3" class="edge">
<title>Connexion&#45;&gt;AppModule</title>
<path fill="none" stroke="#000000" d="M2506,-122.2843C2506,-143.3211 2506,-175 2506,-175 2506,-175 1898.7233,-175 1898.7233,-175"/>
<polygon fill="#000000" stroke="#000000" points="1898.7234,-171.5001 1888.7233,-175 1898.7233,-178.5001 1898.7234,-171.5001"/>
</g>
<!-- TravelList -->
<g id="node4" class="node">
<title>TravelList</title>
<polygon fill="#ffffb3" stroke="#000000" points="2449.3121,-122 2374.6879,-122 2374.6879,-86 2449.3121,-86 2449.3121,-122"/>
<text text-anchor="middle" x="2412" y="-99.8" font-family="Times,serif" font-size="14.00" fill="#000000">TravelList</text>
</g>
<!-- TravelList&#45;&gt;AppModule -->
<g id="edge4" class="edge">
<title>TravelList&#45;&gt;AppModule</title>
<path fill="none" stroke="#000000" d="M2412,-122.308C2412,-142.1455 2412,-171 2412,-171 2412,-171 1899.0052,-171 1899.0052,-171"/>
<polygon fill="#000000" stroke="#000000" points="1899.0053,-167.5001 1889.0052,-171 1899.0052,-174.5001 1899.0053,-167.5001"/>
</g>
<!-- TravelAdd -->
<g id="node5" class="node">
<title>TravelAdd</title>
<polygon fill="#ffffb3" stroke="#000000" points="2357.1404,-122 2280.8596,-122 2280.8596,-86 2357.1404,-86 2357.1404,-122"/>
<text text-anchor="middle" x="2319" y="-99.8" font-family="Times,serif" font-size="14.00" fill="#000000">TravelAdd</text>
</g>
<!-- TravelAdd&#45;&gt;AppModule -->
<g id="edge5" class="edge">
<title>TravelAdd&#45;&gt;AppModule</title>
<path fill="none" stroke="#000000" d="M2319,-122.2222C2319,-140.8285 2319,-167 2319,-167 2319,-167 1898.8869,-167 1898.8869,-167"/>
<polygon fill="#000000" stroke="#000000" points="1898.8869,-163.5001 1888.8869,-167 1898.8868,-170.5001 1898.8869,-163.5001"/>
</g>
<!-- UserPage -->
<g id="node6" class="node">
<title>UserPage</title>
<polygon fill="#ffffb3" stroke="#000000" points="2262.6391,-122 2193.3609,-122 2193.3609,-86 2262.6391,-86 2262.6391,-122"/>
<text text-anchor="middle" x="2228" y="-99.8" font-family="Times,serif" font-size="14.00" fill="#000000">UserPage</text>
</g>
<!-- UserPage&#45;&gt;AppModule -->
<g id="edge6" class="edge">
<title>UserPage&#45;&gt;AppModule</title>
<path fill="none" stroke="#000000" d="M2228,-122.0225C2228,-139.3734 2228,-163 2228,-163 2228,-163 1898.8635,-163 1898.8635,-163"/>
<polygon fill="#000000" stroke="#000000" points="1898.8636,-159.5001 1888.8635,-163 1898.8635,-166.5001 1898.8636,-159.5001"/>
</g>
<!-- UserEditPage -->
<g id="node7" class="node">
<title>UserEditPage</title>
<polygon fill="#ffffb3" stroke="#000000" points="2175.472,-122 2082.528,-122 2082.528,-86 2175.472,-86 2175.472,-122"/>
<text text-anchor="middle" x="2129" y="-99.8" font-family="Times,serif" font-size="14.00" fill="#000000">UserEditPage</text>
</g>
<!-- UserEditPage&#45;&gt;AppModule -->
<g id="edge7" class="edge">
<title>UserEditPage&#45;&gt;AppModule</title>
<path fill="none" stroke="#000000" d="M2129,-122.0091C2129,-138.0494 2129,-159 2129,-159 2129,-159 1898.9137,-159 1898.9137,-159"/>
<polygon fill="#000000" stroke="#000000" points="1898.9138,-155.5001 1888.9137,-159 1898.9137,-162.5001 1898.9138,-155.5001"/>
</g>
<!-- Register -->
<g id="node8" class="node">
<title>Register</title>
<polygon fill="#ffffb3" stroke="#000000" points="2064.1532,-122 2001.8468,-122 2001.8468,-86 2064.1532,-86 2064.1532,-122"/>
<text text-anchor="middle" x="2033" y="-99.8" font-family="Times,serif" font-size="14.00" fill="#000000">Register</text>
</g>
<!-- Register&#45;&gt;AppModule -->
<g id="edge8" class="edge">
<title>Register&#45;&gt;AppModule</title>
<path fill="none" stroke="#000000" d="M2033,-122.1243C2033,-136.7832 2033,-155 2033,-155 2033,-155 1898.742,-155 1898.742,-155"/>
<polygon fill="#000000" stroke="#000000" points="1898.7421,-151.5001 1888.742,-155 1898.742,-158.5001 1898.7421,-151.5001"/>
</g>
<!-- IonicApp  -->
<g id="node14" class="node">
<title>IonicApp </title>
<polygon fill="#80b1d3" stroke="#000000" points="1883.3734,-252 1810.6266,-252 1810.6266,-216 1883.3734,-216 1883.3734,-252"/>
<text text-anchor="middle" x="1847" y="-229.8" font-family="Times,serif" font-size="14.00" fill="#000000">IonicApp </text>
</g>
<!-- AppModule&#45;&gt;IonicApp  -->
<g id="edge13" class="edge">
<title>AppModule&#45;&gt;IonicApp </title>
<path fill="none" stroke="#000000" stroke-dasharray="1,5" d="M1847,-187.1061C1847,-187.1061 1847,-205.991 1847,-205.991"/>
<polygon fill="#000000" stroke="#000000" points="1843.5001,-205.9909 1847,-215.991 1850.5001,-205.991 1843.5001,-205.9909"/>
</g>
<!-- BrowserModule -->
<g id="node10" class="node">
<title>BrowserModule</title>
<polygon fill="#8dd3c7" stroke="#000000" points="1978.4734,-122 1975.4734,-126 1954.4734,-126 1951.4734,-122 1871.5266,-122 1871.5266,-86 1978.4734,-86 1978.4734,-122"/>
<text text-anchor="middle" x="1925" y="-99.8" font-family="Times,serif" font-size="14.00" fill="#000000">BrowserModule</text>
</g>
<!-- BrowserModule&#45;&gt;AppModule -->
<g id="edge9" class="edge">
<title>BrowserModule&#45;&gt;AppModule</title>
<path fill="none" stroke="#000000" d="M1880.1708,-122.1061C1880.1708,-122.1061 1880.1708,-140.991 1880.1708,-140.991"/>
<polygon fill="#000000" stroke="#000000" points="1876.6708,-140.9909 1880.1708,-150.991 1883.6708,-140.991 1876.6708,-140.9909"/>
</g>
<!-- IonicModule.forRoot(args) -->
<g id="node11" class="node">
<title>IonicModule.forRoot(args)</title>
<polygon fill="#8dd3c7" stroke="#000000" points="1854.005,-122 1851.005,-126 1830.005,-126 1827.005,-122 1685.995,-122 1685.995,-86 1854.005,-86 1854.005,-122"/>
<text text-anchor="middle" x="1770" y="-99.8" font-family="Times,serif" font-size="14.00" fill="#000000">IonicModule.forRoot(args)</text>
</g>
<!-- IonicModule.forRoot(args)&#45;&gt;AppModule -->
<g id="edge10" class="edge">
<title>IonicModule.forRoot(args)&#45;&gt;AppModule</title>
<path fill="none" stroke="#000000" d="M1829.5872,-122.1061C1829.5872,-122.1061 1829.5872,-140.991 1829.5872,-140.991"/>
<polygon fill="#000000" stroke="#000000" points="1826.0872,-140.9909 1829.5872,-150.991 1833.0872,-140.991 1826.0872,-140.9909"/>
</g>
<!-- AngularFireModule.initializeApp(args) -->
<g id="node12" class="node">
<title>AngularFireModule.initializeApp(args)</title>
<polygon fill="#8dd3c7" stroke="#000000" points="1667.7057,-122 1664.7057,-126 1643.7057,-126 1640.7057,-122 1430.2943,-122 1430.2943,-86 1667.7057,-86 1667.7057,-122"/>
<text text-anchor="middle" x="1549" y="-99.8" font-family="Times,serif" font-size="14.00" fill="#000000">AngularFireModule.initializeApp(args)</text>
</g>
<!-- AngularFireModule.initializeApp(args)&#45;&gt;AppModule -->
<g id="edge11" class="edge">
<title>AngularFireModule.initializeApp(args)&#45;&gt;AppModule</title>
<path fill="none" stroke="#000000" d="M1549,-122.1243C1549,-136.7832 1549,-155 1549,-155 1549,-155 1795.2506,-155 1795.2506,-155"/>
<polygon fill="#000000" stroke="#000000" points="1795.2506,-158.5001 1805.2506,-155 1795.2506,-151.5001 1795.2506,-158.5001"/>
</g>
<!-- AngularFireDatabaseModule -->
<g id="node13" class="node">
<title>AngularFireDatabaseModule</title>
<polygon fill="#8dd3c7" stroke="#000000" points="1412.771,-122 1409.771,-126 1388.771,-126 1385.771,-122 1233.229,-122 1233.229,-86 1412.771,-86 1412.771,-122"/>
<text text-anchor="middle" x="1323" y="-99.8" font-family="Times,serif" font-size="14.00" fill="#000000">AngularFireDatabaseModule</text>
</g>
<!-- AngularFireDatabaseModule&#45;&gt;AppModule -->
<g id="edge12" class="edge">
<title>AngularFireDatabaseModule&#45;&gt;AppModule</title>
<path fill="none" stroke="#000000" d="M1323,-122.0091C1323,-138.0494 1323,-159 1323,-159 1323,-159 1795.0047,-159 1795.0047,-159"/>
<polygon fill="#000000" stroke="#000000" points="1795.0047,-162.5001 1805.0047,-159 1795.0046,-155.5001 1795.0047,-162.5001"/>
</g>
<!-- StatusBar -->
<g id="node15" class="node">
<title>StatusBar</title>
<ellipse fill="#fdb462" stroke="#000000" cx="1160" cy="-104" rx="48.6694" ry="18"/>
<text text-anchor="middle" x="1160" y="-99.8" font-family="Times,serif" font-size="14.00" fill="#000000">StatusBar</text>
</g>
<!-- StatusBar&#45;&gt;AppModule -->
<g id="edge14" class="edge">
<title>StatusBar&#45;&gt;AppModule</title>
<path fill="none" stroke="#000000" d="M1160,-122.0225C1160,-139.3734 1160,-163 1160,-163 1160,-163 1795.3161,-163 1795.3161,-163"/>
<polygon fill="#000000" stroke="#000000" points="1795.3161,-166.5001 1805.3161,-163 1795.316,-159.5001 1795.3161,-166.5001"/>
</g>
<!-- SplashScreen -->
<g id="node16" class="node">
<title>SplashScreen</title>
<ellipse fill="#fdb462" stroke="#000000" cx="1030" cy="-104" rx="63.1189" ry="18"/>
<text text-anchor="middle" x="1030" y="-99.8" font-family="Times,serif" font-size="14.00" fill="#000000">SplashScreen</text>
</g>
<!-- SplashScreen&#45;&gt;AppModule -->
<g id="edge15" class="edge">
<title>SplashScreen&#45;&gt;AppModule</title>
<path fill="none" stroke="#000000" d="M1030,-122.2222C1030,-140.8285 1030,-167 1030,-167 1030,-167 1795.0787,-167 1795.0787,-167"/>
<polygon fill="#000000" stroke="#000000" points="1795.0787,-170.5001 1805.0787,-167 1795.0787,-163.5001 1795.0787,-170.5001"/>
</g>
<!-- { provide: ErrorHandler, useClass: IonicErrorHandler } -->
<g id="node17" class="node">
<title>{ provide: ErrorHandler, useClass: IonicErrorHandler }</title>
<ellipse fill="#fdb462" stroke="#000000" cx="723" cy="-104" rx="226.4736" ry="18"/>
<text text-anchor="middle" x="723" y="-99.8" font-family="Times,serif" font-size="14.00" fill="#000000">{ provide: ErrorHandler, useClass: IonicErrorHandler }</text>
</g>
<!-- { provide: ErrorHandler, useClass: IonicErrorHandler }&#45;&gt;AppModule -->
<g id="edge16" class="edge">
<title>{ provide: ErrorHandler, useClass: IonicErrorHandler }&#45;&gt;AppModule</title>
<path fill="none" stroke="#000000" d="M723,-122.308C723,-142.1455 723,-171 723,-171 723,-171 1795.3269,-171 1795.3269,-171"/>
<polygon fill="#000000" stroke="#000000" points="1795.3269,-174.5001 1805.3269,-171 1795.3268,-167.5001 1795.3269,-174.5001"/>
</g>
<!-- AngularFireAuth -->
<g id="node18" class="node">
<title>AngularFireAuth</title>
<ellipse fill="#fdb462" stroke="#000000" cx="401" cy="-104" rx="77.5878" ry="18"/>
<text text-anchor="middle" x="401" y="-99.8" font-family="Times,serif" font-size="14.00" fill="#000000">AngularFireAuth</text>
</g>
<!-- AngularFireAuth&#45;&gt;AppModule -->
<g id="edge17" class="edge">
<title>AngularFireAuth&#45;&gt;AppModule</title>
<path fill="none" stroke="#000000" d="M401,-122.2843C401,-143.3211 401,-175 401,-175 401,-175 1795.2835,-175 1795.2835,-175"/>
<polygon fill="#000000" stroke="#000000" points="1795.2835,-178.5001 1805.2835,-175 1795.2834,-171.5001 1795.2835,-178.5001"/>
</g>
<!-- AuthProvider -->
<g id="node19" class="node">
<title>AuthProvider</title>
<ellipse fill="#fdb462" stroke="#000000" cx="242" cy="-104" rx="63.7045" ry="18"/>
<text text-anchor="middle" x="242" y="-99.8" font-family="Times,serif" font-size="14.00" fill="#000000">AuthProvider</text>
</g>
<!-- AuthProvider&#45;&gt;AppModule -->
<g id="edge18" class="edge">
<title>AuthProvider&#45;&gt;AppModule</title>
<path fill="none" stroke="#000000" d="M242,-122.1554C242,-144.3519 242,-179 242,-179 242,-179 1795.3049,-179 1795.3049,-179"/>
<polygon fill="#000000" stroke="#000000" points="1795.3049,-182.5001 1805.3049,-179 1795.3048,-175.5001 1795.3049,-182.5001"/>
</g>
<!-- GoogleService -->
<g id="node20" class="node">
<title>GoogleService</title>
<ellipse fill="#fdb462" stroke="#000000" cx="92" cy="-104" rx="68.3382" ry="18"/>
<text text-anchor="middle" x="92" y="-99.8" font-family="Times,serif" font-size="14.00" fill="#000000">GoogleService</text>
</g>
<!-- GoogleService&#45;&gt;AppModule -->
<g id="edge19" class="edge">
<title>GoogleService&#45;&gt;AppModule</title>
<path fill="none" stroke="#000000" d="M92,-122.3228C92,-145.6602 92,-183 92,-183 92,-183 1794.9191,-183 1794.9191,-183"/>
<polygon fill="#000000" stroke="#000000" points="1794.9191,-186.5001 1804.9191,-183 1794.919,-179.5001 1794.9191,-186.5001"/>
</g>
</g>
</svg>
