<?xml version="1.0" encoding="UTF-8" standalone="no"?>
<!DOCTYPE svg PUBLIC "-//W3C//DTD SVG 1.1//EN"
 "http://www.w3.org/Graphics/SVG/1.1/DTD/svg11.dtd">
<!-- Generated by graphviz version 2.40.1 (20161225.0304)
 -->
<!-- Title: dependencies Pages: 1 -->
<svg width="2858pt" height="284pt"
 viewBox="0.00 0.00 2858.00 284.00" xmlns="http://www.w3.org/2000/svg" xmlns:xlink="http://www.w3.org/1999/xlink">
<g id="graph0" class="graph" transform="scale(1 1) rotate(0) translate(4 280)">
<title>dependencies</title>
<polygon fill="#ffffff" stroke="transparent" points="-4,4 -4,-280 2854,-280 2854,4 -4,4"/>
<text text-anchor="start" x="1404.0091" y="-42.4" font-family="sans-serif" font-weight="bold" font-size="14.00" fill="#000000">Legend</text>
<polygon fill="#ffffb3" stroke="transparent" points="1191,-10 1191,-30 1211,-30 1211,-10 1191,-10"/>
<text text-anchor="start" x="1214.629" y="-15.4" font-family="sans-serif" font-size="14.00" fill="#000000"> &#160;Declarations</text>
<polygon fill="#8dd3c7" stroke="transparent" points="1304,-10 1304,-30 1324,-30 1324,-10 1304,-10"/>
<text text-anchor="start" x="1327.7251" y="-15.4" font-family="sans-serif" font-size="14.00" fill="#000000"> &#160;Module</text>
<polygon fill="#80b1d3" stroke="transparent" points="1390,-10 1390,-30 1410,-30 1410,-10 1390,-10"/>
<text text-anchor="start" x="1413.7812" y="-15.4" font-family="sans-serif" font-size="14.00" fill="#000000"> &#160;Bootstrap</text>
<polygon fill="#fdb462" stroke="transparent" points="1487,-10 1487,-30 1507,-30 1507,-10 1487,-10"/>
<text text-anchor="start" x="1510.6732" y="-15.4" font-family="sans-serif" font-size="14.00" fill="#000000"> &#160;Providers</text>
<polygon fill="#fb8072" stroke="transparent" points="1583,-10 1583,-30 1603,-30 1603,-10 1583,-10"/>
<text text-anchor="start" x="1606.7258" y="-15.4" font-family="sans-serif" font-size="14.00" fill="#000000"> &#160;Exports</text>
<g id="clust1" class="cluster">
<title>cluster_AppModule</title>
<polygon fill="none" stroke="#000000" stroke-dasharray="1,5" points="8,-70 8,-268 2842,-268 2842,-70 8,-70"/>
</g>
<g id="clust2" class="cluster">
<title>cluster_AppModule_declarations</title>
<polygon fill="none" stroke="#000000" points="2109,-78 2109,-130 2834,-130 2834,-78 2109,-78"/>
</g>
<g id="clust11" class="cluster">
<title>cluster_AppModule_imports</title>
<polygon fill="none" stroke="#000000" points="1340,-78 1340,-130 2101,-130 2101,-78 1340,-78"/>
</g>
<g id="clust13" class="cluster">
<title>cluster_AppModule_bootstrap</title>
<polygon fill="none" stroke="#000000" points="1841,-208 1841,-260 1929,-260 1929,-208 1841,-208"/>
</g>
<g id="clust14" class="cluster">
<title>cluster_AppModule_providers</title>
<polygon fill="none" stroke="#000000" points="16,-78 16,-130 1332,-130 1332,-78 16,-78"/>
</g>
<!-- MyApp -->
<g id="node1" class="node">
<title>MyApp</title>
<polygon fill="#ffffb3" stroke="#000000" points="2825.5529,-122 2766.4471,-122 2766.4471,-86 2825.5529,-86 2825.5529,-122"/>
<text text-anchor="middle" x="2796" y="-99.8" font-family="Times,serif" font-size="14.00" fill="#000000">MyApp</text>
</g>
<!-- AppModule -->
<g id="node9" class="node">
<title>AppModule</title>
<polygon fill="#8dd3c7" stroke="#000000" points="1926.6571,-187 1923.6571,-191 1902.6571,-191 1899.6571,-187 1843.3429,-187 1843.3429,-151 1926.6571,-151 1926.6571,-187"/>
<text text-anchor="middle" x="1885" y="-164.8" font-family="Times,serif" font-size="14.00" fill="#000000">AppModule</text>
</g>
<!-- MyApp&#45;&gt;AppModule -->
<g id="edge1" class="edge">
<title>MyApp&#45;&gt;AppModule</title>
<path fill="none" stroke="#000000" d="M2796,-122.1532C2796,-145.7566 2796,-184 2796,-184 2796,-184 1936.8112,-184 1936.8112,-184"/>
<polygon fill="#000000" stroke="#000000" points="1936.8112,-180.5001 1926.8112,-184 1936.8112,-187.5001 1936.8112,-180.5001"/>
</g>
<!-- TabsPage -->
<g id="node2" class="node">
<title>TabsPage</title>
<polygon fill="#ffffb3" stroke="#000000" points="2748.4249,-122 2677.5751,-122 2677.5751,-86 2748.4249,-86 2748.4249,-122"/>
<text text-anchor="middle" x="2713" y="-99.8" font-family="Times,serif" font-size="14.00" fill="#000000">TabsPage</text>
</g>
<!-- TabsPage&#45;&gt;AppModule -->
<g id="edge2" class="edge">
<title>TabsPage&#45;&gt;AppModule</title>
<path fill="none" stroke="#000000" d="M2713,-122.0109C2713,-144.4852 2713,-180 2713,-180 2713,-180 1936.9131,-180 1936.9131,-180"/>
<polygon fill="#000000" stroke="#000000" points="1936.9131,-176.5001 1926.9131,-180 1936.9131,-183.5001 1936.9131,-176.5001"/>
</g>
<!-- Connexion -->
<g id="node3" class="node">
<title>Connexion</title>
<polygon fill="#ffffb3" stroke="#000000" points="2659.9431,-122 2582.0569,-122 2582.0569,-86 2659.9431,-86 2659.9431,-122"/>
<text text-anchor="middle" x="2621" y="-99.8" font-family="Times,serif" font-size="14.00" fill="#000000">Connexion</text>
</g>
<!-- Connexion&#45;&gt;AppModule -->
<g id="edge3" class="edge">
<title>Connexion&#45;&gt;AppModule</title>
<path fill="none" stroke="#000000" d="M2621,-122.0449C2621,-143.6623 2621,-177 2621,-177 2621,-177 1936.6793,-177 1936.6793,-177"/>
<polygon fill="#000000" stroke="#000000" points="1936.6794,-173.5001 1926.6793,-177 1936.6793,-180.5001 1936.6794,-173.5001"/>
</g>
<!-- TravelList -->
<g id="node4" class="node">
<title>TravelList</title>
<polygon fill="#ffffb3" stroke="#000000" points="2564.3121,-122 2489.6879,-122 2489.6879,-86 2564.3121,-86 2564.3121,-122"/>
<text text-anchor="middle" x="2527" y="-99.8" font-family="Times,serif" font-size="14.00" fill="#000000">TravelList</text>
</g>
<!-- TravelList&#45;&gt;AppModule -->
<g id="edge4" class="edge">
<title>TravelList&#45;&gt;AppModule</title>
<path fill="none" stroke="#000000" d="M2527,-122.1289C2527,-142.5724 2527,-173 2527,-173 2527,-173 1937.1234,-173 1937.1234,-173"/>
<polygon fill="#000000" stroke="#000000" points="1937.1234,-169.5001 1927.1234,-173 1937.1234,-176.5001 1937.1234,-169.5001"/>
</g>
<!-- TravelAdd -->
<g id="node5" class="node">
<title>TravelAdd</title>
<polygon fill="#ffffb3" stroke="#000000" points="2472.1404,-122 2395.8596,-122 2395.8596,-86 2472.1404,-86 2472.1404,-122"/>
<text text-anchor="middle" x="2434" y="-99.8" font-family="Times,serif" font-size="14.00" fill="#000000">TravelAdd</text>
</g>
<!-- TravelAdd&#45;&gt;AppModule -->
<g id="edge5" class="edge">
<title>TravelAdd&#45;&gt;AppModule</title>
<path fill="none" stroke="#000000" d="M2434,-122.1061C2434,-141.3391 2434,-169 2434,-169 2434,-169 1936.7148,-169 1936.7148,-169"/>
<polygon fill="#000000" stroke="#000000" points="1936.7149,-165.5001 1926.7148,-169 1936.7148,-172.5001 1936.7149,-165.5001"/>
</g>
<!-- UserPage -->
<g id="node6" class="node">
<title>UserPage</title>
<polygon fill="#ffffb3" stroke="#000000" points="2377.6391,-122 2308.3609,-122 2308.3609,-86 2377.6391,-86 2377.6391,-122"/>
<text text-anchor="middle" x="2343" y="-99.8" font-family="Times,serif" font-size="14.00" fill="#000000">UserPage</text>
</g>
<!-- UserPage&#45;&gt;AppModule -->
<g id="edge6" class="edge">
<title>UserPage&#45;&gt;AppModule</title>
<path fill="none" stroke="#000000" d="M2343,-122.2667C2343,-140.5552 2343,-166 2343,-166 2343,-166 1936.8586,-166 1936.8586,-166"/>
<polygon fill="#000000" stroke="#000000" points="1936.8586,-162.5001 1926.8586,-166 1936.8586,-169.5001 1936.8586,-162.5001"/>
</g>
<!-- UserEditPage -->
<g id="node7" class="node">
<title>UserEditPage</title>
<polygon fill="#ffffb3" stroke="#000000" points="2290.472,-122 2197.528,-122 2197.528,-86 2290.472,-86 2290.472,-122"/>
<text text-anchor="middle" x="2244" y="-99.8" font-family="Times,serif" font-size="14.00" fill="#000000">UserEditPage</text>
</g>
<!-- UserEditPage&#45;&gt;AppModule -->
<g id="edge7" class="edge">
<title>UserEditPage&#45;&gt;AppModule</title>
<path fill="none" stroke="#000000" d="M2244,-122.0336C2244,-139.0597 2244,-162 2244,-162 2244,-162 1936.8845,-162 1936.8845,-162"/>
<polygon fill="#000000" stroke="#000000" points="1936.8845,-158.5001 1926.8845,-162 1936.8844,-165.5001 1936.8845,-158.5001"/>
</g>
<!-- Register -->
<g id="node8" class="node">
<title>Register</title>
<polygon fill="#ffffb3" stroke="#000000" points="2179.1532,-122 2116.8468,-122 2116.8468,-86 2179.1532,-86 2179.1532,-122"/>
<text text-anchor="middle" x="2148" y="-99.8" font-family="Times,serif" font-size="14.00" fill="#000000">Register</text>
</g>
<!-- Register&#45;&gt;AppModule -->
<g id="edge8" class="edge">
<title>Register&#45;&gt;AppModule</title>
<path fill="none" stroke="#000000" d="M2148,-122.0091C2148,-138.0494 2148,-159 2148,-159 2148,-159 1936.6731,-159 1936.6731,-159"/>
<polygon fill="#000000" stroke="#000000" points="1936.6732,-155.5001 1926.6731,-159 1936.6731,-162.5001 1936.6732,-155.5001"/>
</g>
<!-- IonicApp  -->
<g id="node14" class="node">
<title>IonicApp </title>
<polygon fill="#80b1d3" stroke="#000000" points="1921.3734,-252 1848.6266,-252 1848.6266,-216 1921.3734,-216 1921.3734,-252"/>
<text text-anchor="middle" x="1885" y="-229.8" font-family="Times,serif" font-size="14.00" fill="#000000">IonicApp </text>
</g>
<!-- AppModule&#45;&gt;IonicApp  -->
<g id="edge13" class="edge">
<title>AppModule&#45;&gt;IonicApp </title>
<path fill="none" stroke="#000000" stroke-dasharray="1,5" d="M1885,-187.1061C1885,-187.1061 1885,-205.991 1885,-205.991"/>
<polygon fill="#000000" stroke="#000000" points="1881.5001,-205.9909 1885,-215.991 1888.5001,-205.991 1881.5001,-205.9909"/>
</g>
<!-- BrowserModule -->
<g id="node10" class="node">
<title>BrowserModule</title>
<polygon fill="#8dd3c7" stroke="#000000" points="2093.4734,-122 2090.4734,-126 2069.4734,-126 2066.4734,-122 1986.5266,-122 1986.5266,-86 2093.4734,-86 2093.4734,-122"/>
<text text-anchor="middle" x="2040" y="-99.8" font-family="Times,serif" font-size="14.00" fill="#000000">BrowserModule</text>
</g>
<!-- BrowserModule&#45;&gt;AppModule -->
<g id="edge9" class="edge">
<title>BrowserModule&#45;&gt;AppModule</title>
<path fill="none" stroke="#000000" d="M2040,-122.1243C2040,-136.7832 2040,-155 2040,-155 2040,-155 1936.9452,-155 1936.9452,-155"/>
<polygon fill="#000000" stroke="#000000" points="1936.9453,-151.5001 1926.9452,-155 1936.9452,-158.5001 1936.9453,-151.5001"/>
</g>
<!-- IonicModule.forRoot(args) -->
<g id="node11" class="node">
<title>IonicModule.forRoot(args)</title>
<polygon fill="#8dd3c7" stroke="#000000" points="1969.005,-122 1966.005,-126 1945.005,-126 1942.005,-122 1800.995,-122 1800.995,-86 1969.005,-86 1969.005,-122"/>
<text text-anchor="middle" x="1885" y="-99.8" font-family="Times,serif" font-size="14.00" fill="#000000">IonicModule.forRoot(args)</text>
</g>
<!-- IonicModule.forRoot(args)&#45;&gt;AppModule -->
<g id="edge10" class="edge">
<title>IonicModule.forRoot(args)&#45;&gt;AppModule</title>
<path fill="none" stroke="#000000" d="M1885,-122.1061C1885,-122.1061 1885,-140.991 1885,-140.991"/>
<polygon fill="#000000" stroke="#000000" points="1881.5001,-140.9909 1885,-150.991 1888.5001,-140.991 1881.5001,-140.9909"/>
</g>
<!-- AngularFireModule.initializeApp(args) -->
<g id="node12" class="node">
<title>AngularFireModule.initializeApp(args)</title>
<polygon fill="#8dd3c7" stroke="#000000" points="1782.7057,-122 1779.7057,-126 1758.7057,-126 1755.7057,-122 1545.2943,-122 1545.2943,-86 1782.7057,-86 1782.7057,-122"/>
<text text-anchor="middle" x="1664" y="-99.8" font-family="Times,serif" font-size="14.00" fill="#000000">AngularFireModule.initializeApp(args)</text>
</g>
<!-- AngularFireModule.initializeApp(args)&#45;&gt;AppModule -->
<g id="edge11" class="edge">
<title>AngularFireModule.initializeApp(args)&#45;&gt;AppModule</title>
<path fill="none" stroke="#000000" d="M1664,-122.1243C1664,-136.7832 1664,-155 1664,-155 1664,-155 1833.1718,-155 1833.1718,-155"/>
<polygon fill="#000000" stroke="#000000" points="1833.1718,-158.5001 1843.1718,-155 1833.1717,-151.5001 1833.1718,-158.5001"/>
</g>
<!-- AngularFireDatabaseModule -->
<g id="node13" class="node">
<title>AngularFireDatabaseModule</title>
<polygon fill="#8dd3c7" stroke="#000000" points="1527.771,-122 1524.771,-126 1503.771,-126 1500.771,-122 1348.229,-122 1348.229,-86 1527.771,-86 1527.771,-122"/>
<text text-anchor="middle" x="1438" y="-99.8" font-family="Times,serif" font-size="14.00" fill="#000000">AngularFireDatabaseModule</text>
</g>
<!-- AngularFireDatabaseModule&#45;&gt;AppModule -->
<g id="edge12" class="edge">
<title>AngularFireDatabaseModule&#45;&gt;AppModule</title>
<path fill="none" stroke="#000000" d="M1438,-122.0091C1438,-138.0494 1438,-159 1438,-159 1438,-159 1832.9473,-159 1832.9473,-159"/>
<polygon fill="#000000" stroke="#000000" points="1832.9474,-162.5001 1842.9473,-159 1832.9473,-155.5001 1832.9474,-162.5001"/>
</g>
<!-- StatusBar -->
<g id="node15" class="node">
<title>StatusBar</title>
<ellipse fill="#fdb462" stroke="#000000" cx="1275" cy="-104" rx="48.6694" ry="18"/>
<text text-anchor="middle" x="1275" y="-99.8" font-family="Times,serif" font-size="14.00" fill="#000000">StatusBar</text>
</g>
<!-- StatusBar&#45;&gt;AppModule -->
<g id="edge14" class="edge">
<title>StatusBar&#45;&gt;AppModule</title>
<path fill="none" stroke="#000000" d="M1275,-122.0336C1275,-139.0597 1275,-162 1275,-162 1275,-162 1833.0722,-162 1833.0722,-162"/>
<polygon fill="#000000" stroke="#000000" points="1833.0723,-165.5001 1843.0722,-162 1833.0722,-158.5001 1833.0723,-165.5001"/>
</g>
<!-- SplashScreen -->
<g id="node16" class="node">
<title>SplashScreen</title>
<ellipse fill="#fdb462" stroke="#000000" cx="1145" cy="-104" rx="63.1189" ry="18"/>
<text text-anchor="middle" x="1145" y="-99.8" font-family="Times,serif" font-size="14.00" fill="#000000">SplashScreen</text>
</g>
<!-- SplashScreen&#45;&gt;AppModule -->
<g id="edge15" class="edge">
<title>SplashScreen&#45;&gt;AppModule</title>
<path fill="none" stroke="#000000" d="M1145,-122.2667C1145,-140.5552 1145,-166 1145,-166 1145,-166 1833.0941,-166 1833.0941,-166"/>
<polygon fill="#000000" stroke="#000000" points="1833.0942,-169.5001 1843.0941,-166 1833.0941,-162.5001 1833.0942,-169.5001"/>
</g>
<!-- DataService -->
<g id="node17" class="node">
<title>DataService</title>
<ellipse fill="#fdb462" stroke="#000000" cx="1006" cy="-104" rx="58.4415" ry="18"/>
<text text-anchor="middle" x="1006" y="-99.8" font-family="Times,serif" font-size="14.00" fill="#000000">DataService</text>
</g>
<!-- DataService&#45;&gt;AppModule -->
<g id="edge16" class="edge">
<title>DataService&#45;&gt;AppModule</title>
<path fill="none" stroke="#000000" d="M1006,-122.1061C1006,-141.3391 1006,-169 1006,-169 1006,-169 1833.1953,-169 1833.1953,-169"/>
<polygon fill="#000000" stroke="#000000" points="1833.1954,-172.5001 1843.1953,-169 1833.1953,-165.5001 1833.1954,-172.5001"/>
</g>
<!-- { provide: ErrorHandler, useClass: IonicErrorHandler } -->
<g id="node18" class="node">
<title>{ provide: ErrorHandler, useClass: IonicErrorHandler }</title>
<ellipse fill="#fdb462" stroke="#000000" cx="704" cy="-104" rx="226.4736" ry="18"/>
<text text-anchor="middle" x="704" y="-99.8" font-family="Times,serif" font-size="14.00" fill="#000000">{ provide: ErrorHandler, useClass: IonicErrorHandler }</text>
</g>
<!-- { provide: ErrorHandler, useClass: IonicErrorHandler }&#45;&gt;AppModule -->
<g id="edge17" class="edge">
<title>{ provide: ErrorHandler, useClass: IonicErrorHandler }&#45;&gt;AppModule</title>
<path fill="none" stroke="#000000" d="M704,-122.1289C704,-142.5724 704,-173 704,-173 704,-173 1833.3145,-173 1833.3145,-173"/>
<polygon fill="#000000" stroke="#000000" points="1833.3145,-176.5001 1843.3145,-173 1833.3144,-169.5001 1833.3145,-176.5001"/>
</g>
<!-- AngularFireAuth -->
<g id="node19" class="node">
<title>AngularFireAuth</title>
<ellipse fill="#fdb462" stroke="#000000" cx="382" cy="-104" rx="77.5878" ry="18"/>
<text text-anchor="middle" x="382" y="-99.8" font-family="Times,serif" font-size="14.00" fill="#000000">AngularFireAuth</text>
</g>
<!-- AngularFireAuth&#45;&gt;AppModule -->
<g id="edge18" class="edge">
<title>AngularFireAuth&#45;&gt;AppModule</title>
<path fill="none" stroke="#000000" d="M382,-122.0449C382,-143.6623 382,-177 382,-177 382,-177 1833.2325,-177 1833.2325,-177"/>
<polygon fill="#000000" stroke="#000000" points="1833.2325,-180.5001 1843.2325,-177 1833.2325,-173.5001 1833.2325,-180.5001"/>
</g>
<!-- AuthProvider -->
<g id="node20" class="node">
<title>AuthProvider</title>
<ellipse fill="#fdb462" stroke="#000000" cx="223" cy="-104" rx="63.7045" ry="18"/>
<text text-anchor="middle" x="223" y="-99.8" font-family="Times,serif" font-size="14.00" fill="#000000">AuthProvider</text>
</g>
<!-- AuthProvider&#45;&gt;AppModule -->
<g id="edge19" class="edge">
<title>AuthProvider&#45;&gt;AppModule</title>
<path fill="none" stroke="#000000" d="M223,-122.0109C223,-144.4852 223,-180 223,-180 223,-180 1833.0854,-180 1833.0854,-180"/>
<polygon fill="#000000" stroke="#000000" points="1833.0854,-183.5001 1843.0854,-180 1833.0854,-176.5001 1833.0854,-183.5001"/>
</g>
<!-- TabsService -->
<g id="node21" class="node">
<title>TabsService</title>
<ellipse fill="#fdb462" stroke="#000000" cx="83" cy="-104" rx="58.5251" ry="18"/>
<text text-anchor="middle" x="83" y="-99.8" font-family="Times,serif" font-size="14.00" fill="#000000">TabsService</text>
</g>
<!-- TabsService&#45;&gt;AppModule -->
<g id="edge20" class="edge">
<title>TabsService&#45;&gt;AppModule</title>
<path fill="none" stroke="#000000" d="M83,-122.1532C83,-145.7566 83,-184 83,-184 83,-184 1833.1093,-184 1833.1093,-184"/>
<polygon fill="#000000" stroke="#000000" points="1833.1094,-187.5001 1843.1093,-184 1833.1093,-180.5001 1833.1094,-187.5001"/>
</g>
</g>
</svg>
