<?xml version="1.0" encoding="UTF-8" standalone="no"?>
<!DOCTYPE svg PUBLIC "-//W3C//DTD SVG 1.1//EN"
 "http://www.w3.org/Graphics/SVG/1.1/DTD/svg11.dtd">
<!-- Generated by graphviz version 2.40.1 (20161225.0304)
 -->
<!-- Title: dependencies Pages: 1 -->
<svg width="504pt" height="284pt"
 viewBox="0.00 0.00 504.00 284.00" xmlns="http://www.w3.org/2000/svg" xmlns:xlink="http://www.w3.org/1999/xlink">
<g id="graph0" class="graph" transform="scale(1 1) rotate(0) translate(4 280)">
<title>dependencies</title>
<polygon fill="#ffffff" stroke="transparent" points="-4,4 -4,-280 500,-280 500,4 -4,4"/>
<text text-anchor="start" x="227.0091" y="-42.4" font-family="sans-serif" font-weight="bold" font-size="14.00" fill="#000000">Legend</text>
<polygon fill="#ffffb3" stroke="transparent" points="14,-10 14,-30 34,-30 34,-10 14,-10"/>
<text text-anchor="start" x="37.629" y="-15.4" font-family="sans-serif" font-size="14.00" fill="#000000"> &#160;Declarations</text>
<polygon fill="#8dd3c7" stroke="transparent" points="127,-10 127,-30 147,-30 147,-10 127,-10"/>
<text text-anchor="start" x="150.7251" y="-15.4" font-family="sans-serif" font-size="14.00" fill="#000000"> &#160;Module</text>
<polygon fill="#80b1d3" stroke="transparent" points="213,-10 213,-30 233,-30 233,-10 213,-10"/>
<text text-anchor="start" x="236.7812" y="-15.4" font-family="sans-serif" font-size="14.00" fill="#000000"> &#160;Bootstrap</text>
<polygon fill="#fdb462" stroke="transparent" points="310,-10 310,-30 330,-30 330,-10 310,-10"/>
<text text-anchor="start" x="333.6732" y="-15.4" font-family="sans-serif" font-size="14.00" fill="#000000"> &#160;Providers</text>
<polygon fill="#fb8072" stroke="transparent" points="406,-10 406,-30 426,-30 426,-10 406,-10"/>
<text text-anchor="start" x="429.7258" y="-15.4" font-family="sans-serif" font-size="14.00" fill="#000000"> &#160;Exports</text>
<g id="clust1" class="cluster">
<title>cluster_TravelAddModule</title>
<polygon fill="none" stroke="#000000" stroke-dasharray="1,5" points="82,-70 82,-268 414,-268 414,-70 82,-70"/>
</g>
<g id="clust2" class="cluster">
<title>cluster_TravelAddModule_declarations</title>
<polygon fill="none" stroke="#000000" points="314,-78 314,-130 406,-130 406,-78 314,-78"/>
</g>
<g id="clust4" class="cluster">
<title>cluster_TravelAddModule_imports</title>
<polygon fill="none" stroke="#000000" points="90,-78 90,-130 306,-130 306,-78 90,-78"/>
</g>
<g id="clust5" class="cluster">
<title>cluster_TravelAddModule_exports</title>
<polygon fill="none" stroke="#000000" points="224,-208 224,-260 320,-260 320,-208 224,-208"/>
</g>
<!-- TravelAdd -->
<g id="node1" class="node">
<title>TravelAdd</title>
<polygon fill="#ffffb3" stroke="#000000" points="398.1404,-122 321.8596,-122 321.8596,-86 398.1404,-86 398.1404,-122"/>
<text text-anchor="middle" x="360" y="-99.8" font-family="Times,serif" font-size="14.00" fill="#000000">TravelAdd</text>
</g>
<!-- TravelAddModule -->
<g id="node2" class="node">
<title>TravelAddModule</title>
<polygon fill="#8dd3c7" stroke="#000000" points="332.1895,-187 329.1895,-191 308.1895,-191 305.1895,-187 211.8105,-187 211.8105,-151 332.1895,-151 332.1895,-187"/>
<text text-anchor="middle" x="272" y="-164.8" font-family="Times,serif" font-size="14.00" fill="#000000">TravelAddModule</text>
</g>
<!-- TravelAdd&#45;&gt;TravelAddModule -->
<g id="edge1" class="edge">
<title>TravelAdd&#45;&gt;TravelAddModule</title>
<path fill="none" stroke="#000000" d="M326.8875,-122.1061C326.8875,-122.1061 326.8875,-140.991 326.8875,-140.991"/>
<polygon fill="#000000" stroke="#000000" points="323.3875,-140.9909 326.8875,-150.991 330.3875,-140.991 323.3875,-140.9909"/>
</g>
<!-- TravelAdd  -->
<g id="node4" class="node">
<title>TravelAdd </title>
<polygon fill="#fb8072" stroke="#000000" points="312.1397,-252 231.8603,-252 231.8603,-216 312.1397,-216 312.1397,-252"/>
<text text-anchor="middle" x="272" y="-229.8" font-family="Times,serif" font-size="14.00" fill="#000000">TravelAdd </text>
</g>
<!-- TravelAddModule&#45;&gt;TravelAdd  -->
<g id="edge3" class="edge">
<title>TravelAddModule&#45;&gt;TravelAdd </title>
<path fill="none" stroke="#000000" stroke-dasharray="5,2" d="M272,-187.1061C272,-187.1061 272,-205.991 272,-205.991"/>
<polygon fill="#000000" stroke="#000000" points="268.5001,-205.9909 272,-215.991 275.5001,-205.991 268.5001,-205.9909"/>
</g>
<!-- IonicPageModule.forChild(args) -->
<g id="node3" class="node">
<title>IonicPageModule.forChild(args)</title>
<polygon fill="#8dd3c7" stroke="#000000" points="297.6074,-122 294.6074,-126 273.6074,-126 270.6074,-122 98.3926,-122 98.3926,-86 297.6074,-86 297.6074,-122"/>
<text text-anchor="middle" x="198" y="-99.8" font-family="Times,serif" font-size="14.00" fill="#000000">IonicPageModule.forChild(args)</text>
</g>
<!-- IonicPageModule.forChild(args)&#45;&gt;TravelAddModule -->
<g id="edge2" class="edge">
<title>IonicPageModule.forChild(args)&#45;&gt;TravelAddModule</title>
<path fill="none" stroke="#000000" d="M254.7295,-122.1061C254.7295,-122.1061 254.7295,-140.991 254.7295,-140.991"/>
<polygon fill="#000000" stroke="#000000" points="251.2296,-140.9909 254.7295,-150.991 258.2296,-140.991 251.2296,-140.9909"/>
</g>
</g>
</svg>
