<?xml version="1.0" encoding="UTF-8" standalone="no"?>
<!DOCTYPE svg PUBLIC "-//W3C//DTD SVG 1.1//EN"
 "http://www.w3.org/Graphics/SVG/1.1/DTD/svg11.dtd">
<!-- Generated by graphviz version 2.40.1 (20161225.0304)
 -->
<!-- Title: dependencies Pages: 1 -->
<svg width="516pt" height="284pt"
 viewBox="0.00 0.00 516.00 284.00" xmlns="http://www.w3.org/2000/svg" xmlns:xlink="http://www.w3.org/1999/xlink">
<g id="graph0" class="graph" transform="scale(1 1) rotate(0) translate(4 280)">
<title>dependencies</title>
<polygon fill="#ffffff" stroke="transparent" points="-4,4 -4,-280 512,-280 512,4 -4,4"/>
<text text-anchor="start" x="233.0091" y="-42.4" font-family="sans-serif" font-weight="bold" font-size="14.00" fill="#000000">Legend</text>
<polygon fill="#ffffb3" stroke="transparent" points="20,-10 20,-30 40,-30 40,-10 20,-10"/>
<text text-anchor="start" x="43.629" y="-15.4" font-family="sans-serif" font-size="14.00" fill="#000000"> &#160;Declarations</text>
<polygon fill="#8dd3c7" stroke="transparent" points="133,-10 133,-30 153,-30 153,-10 133,-10"/>
<text text-anchor="start" x="156.7251" y="-15.4" font-family="sans-serif" font-size="14.00" fill="#000000"> &#160;Module</text>
<polygon fill="#80b1d3" stroke="transparent" points="219,-10 219,-30 239,-30 239,-10 219,-10"/>
<text text-anchor="start" x="242.7812" y="-15.4" font-family="sans-serif" font-size="14.00" fill="#000000"> &#160;Bootstrap</text>
<polygon fill="#fdb462" stroke="transparent" points="316,-10 316,-30 336,-30 336,-10 316,-10"/>
<text text-anchor="start" x="339.6732" y="-15.4" font-family="sans-serif" font-size="14.00" fill="#000000"> &#160;Providers</text>
<polygon fill="#fb8072" stroke="transparent" points="412,-10 412,-30 432,-30 432,-10 412,-10"/>
<text text-anchor="start" x="435.7258" y="-15.4" font-family="sans-serif" font-size="14.00" fill="#000000"> &#160;Exports</text>
<g id="clust1" class="cluster">
<title>cluster_TravelAddModule</title>
<polygon fill="none" stroke="#000000" stroke-dasharray="1,5" points="8,-70 8,-268 500,-268 500,-70 8,-70"/>
</g>
<g id="clust2" class="cluster">
<title>cluster_TravelAddModule_declarations</title>
<polygon fill="none" stroke="#000000" points="400,-78 400,-130 492,-130 492,-78 400,-78"/>
</g>
<g id="clust4" class="cluster">
<title>cluster_TravelAddModule_imports</title>
<polygon fill="none" stroke="#000000" points="176,-78 176,-130 392,-130 392,-78 176,-78"/>
</g>
<g id="clust5" class="cluster">
<title>cluster_TravelAddModule_exports</title>
<polygon fill="none" stroke="#000000" points="236,-208 236,-260 332,-260 332,-208 236,-208"/>
</g>
<g id="clust7" class="cluster">
<title>cluster_TravelAddModule_providers</title>
<polygon fill="none" stroke="#000000" points="16,-78 16,-130 168,-130 168,-78 16,-78"/>
</g>
<!-- TravelAdd -->
<g id="node1" class="node">
<title>TravelAdd</title>
<polygon fill="#ffffb3" stroke="#000000" points="484.1404,-122 407.8596,-122 407.8596,-86 484.1404,-86 484.1404,-122"/>
<text text-anchor="middle" x="446" y="-99.8" font-family="Times,serif" font-size="14.00" fill="#000000">TravelAdd</text>
</g>
<!-- TravelAddModule -->
<g id="node2" class="node">
<title>TravelAddModule</title>
<polygon fill="#8dd3c7" stroke="#000000" points="344.1895,-187 341.1895,-191 320.1895,-191 317.1895,-187 223.8105,-187 223.8105,-151 344.1895,-151 344.1895,-187"/>
<text text-anchor="middle" x="284" y="-164.8" font-family="Times,serif" font-size="14.00" fill="#000000">TravelAddModule</text>
</g>
<!-- TravelAdd&#45;&gt;TravelAddModule -->
<g id="edge1" class="edge">
<title>TravelAdd&#45;&gt;TravelAddModule</title>
<path fill="none" stroke="#000000" d="M446,-122.1061C446,-141.3391 446,-169 446,-169 446,-169 354.3228,-169 354.3228,-169"/>
<polygon fill="#000000" stroke="#000000" points="354.3229,-165.5001 344.3228,-169 354.3228,-172.5001 354.3229,-165.5001"/>
</g>
<!-- TravelAdd  -->
<g id="node4" class="node">
<title>TravelAdd </title>
<polygon fill="#fb8072" stroke="#000000" points="324.1397,-252 243.8603,-252 243.8603,-216 324.1397,-216 324.1397,-252"/>
<text text-anchor="middle" x="284" y="-229.8" font-family="Times,serif" font-size="14.00" fill="#000000">TravelAdd </text>
</g>
<!-- TravelAddModule&#45;&gt;TravelAdd  -->
<g id="edge3" class="edge">
<title>TravelAddModule&#45;&gt;TravelAdd </title>
<path fill="none" stroke="#000000" stroke-dasharray="5,2" d="M284,-187.1061C284,-187.1061 284,-205.991 284,-205.991"/>
<polygon fill="#000000" stroke="#000000" points="280.5001,-205.9909 284,-215.991 287.5001,-205.991 280.5001,-205.9909"/>
</g>
<!-- IonicPageModule.forChild(args) -->
<g id="node3" class="node">
<title>IonicPageModule.forChild(args)</title>
<polygon fill="#8dd3c7" stroke="#000000" points="383.6074,-122 380.6074,-126 359.6074,-126 356.6074,-122 184.3926,-122 184.3926,-86 383.6074,-86 383.6074,-122"/>
<text text-anchor="middle" x="284" y="-99.8" font-family="Times,serif" font-size="14.00" fill="#000000">IonicPageModule.forChild(args)</text>
</g>
<!-- IonicPageModule.forChild(args)&#45;&gt;TravelAddModule -->
<g id="edge2" class="edge">
<title>IonicPageModule.forChild(args)&#45;&gt;TravelAddModule</title>
<path fill="none" stroke="#000000" d="M284,-122.1061C284,-122.1061 284,-140.991 284,-140.991"/>
<polygon fill="#000000" stroke="#000000" points="280.5001,-140.9909 284,-150.991 287.5001,-140.991 280.5001,-140.9909"/>
</g>
<!-- GoogleService -->
<g id="node5" class="node">
<title>GoogleService</title>
<ellipse fill="#fdb462" stroke="#000000" cx="92" cy="-104" rx="68.3382" ry="18"/>
<text text-anchor="middle" x="92" y="-99.8" font-family="Times,serif" font-size="14.00" fill="#000000">GoogleService</text>
</g>
<!-- GoogleService&#45;&gt;TravelAddModule -->
<g id="edge4" class="edge">
<title>GoogleService&#45;&gt;TravelAddModule</title>
<path fill="none" stroke="#000000" d="M92,-122.1061C92,-141.3391 92,-169 92,-169 92,-169 213.7768,-169 213.7768,-169"/>
<polygon fill="#000000" stroke="#000000" points="213.7768,-172.5001 223.7768,-169 213.7768,-165.5001 213.7768,-172.5001"/>
</g>
</g>
</svg>
