<?xml version="1.0" encoding="UTF-8" standalone="no"?>
<!DOCTYPE svg PUBLIC "-//W3C//DTD SVG 1.1//EN"
 "http://www.w3.org/Graphics/SVG/1.1/DTD/svg11.dtd">
<!-- Generated by graphviz version 2.40.1 (20161225.0304)
 -->
<!-- Title: dependencies Pages: 1 -->
<svg width="504pt" height="284pt"
 viewBox="0.00 0.00 504.00 284.00" xmlns="http://www.w3.org/2000/svg" xmlns:xlink="http://www.w3.org/1999/xlink">
<g id="graph0" class="graph" transform="scale(1 1) rotate(0) translate(4 280)">
<title>dependencies</title>
<polygon fill="#ffffff" stroke="transparent" points="-4,4 -4,-280 500,-280 500,4 -4,4"/>
<text text-anchor="start" x="227.0091" y="-42.4" font-family="sans-serif" font-weight="bold" font-size="14.00" fill="#000000">Legend</text>
<polygon fill="#ffffb3" stroke="transparent" points="14,-10 14,-30 34,-30 34,-10 14,-10"/>
<text text-anchor="start" x="37.629" y="-15.4" font-family="sans-serif" font-size="14.00" fill="#000000"> &#160;Declarations</text>
<polygon fill="#8dd3c7" stroke="transparent" points="127,-10 127,-30 147,-30 147,-10 127,-10"/>
<text text-anchor="start" x="150.7251" y="-15.4" font-family="sans-serif" font-size="14.00" fill="#000000"> &#160;Module</text>
<polygon fill="#80b1d3" stroke="transparent" points="213,-10 213,-30 233,-30 233,-10 213,-10"/>
<text text-anchor="start" x="236.7812" y="-15.4" font-family="sans-serif" font-size="14.00" fill="#000000"> &#160;Bootstrap</text>
<polygon fill="#fdb462" stroke="transparent" points="310,-10 310,-30 330,-30 330,-10 310,-10"/>
<text text-anchor="start" x="333.6732" y="-15.4" font-family="sans-serif" font-size="14.00" fill="#000000"> &#160;Providers</text>
<polygon fill="#fb8072" stroke="transparent" points="406,-10 406,-30 426,-30 426,-10 406,-10"/>
<text text-anchor="start" x="429.7258" y="-15.4" font-family="sans-serif" font-size="14.00" fill="#000000"> &#160;Exports</text>
<g id="clust1" class="cluster">
<title>cluster_RegisterModule</title>
<polygon fill="none" stroke="#000000" stroke-dasharray="1,5" points="89,-70 89,-268 407,-268 407,-70 89,-70"/>
</g>
<g id="clust2" class="cluster">
<title>cluster_RegisterModule_declarations</title>
<polygon fill="none" stroke="#000000" points="321,-78 321,-130 399,-130 399,-78 321,-78"/>
</g>
<g id="clust4" class="cluster">
<title>cluster_RegisterModule_imports</title>
<polygon fill="none" stroke="#000000" points="97,-78 97,-130 313,-130 313,-78 97,-78"/>
</g>
<g id="clust5" class="cluster">
<title>cluster_RegisterModule_exports</title>
<polygon fill="none" stroke="#000000" points="234,-208 234,-260 316,-260 316,-208 234,-208"/>
</g>
<!-- Register -->
<g id="node1" class="node">
<title>Register</title>
<polygon fill="#ffffb3" stroke="#000000" points="391.1532,-122 328.8468,-122 328.8468,-86 391.1532,-86 391.1532,-122"/>
<text text-anchor="middle" x="360" y="-99.8" font-family="Times,serif" font-size="14.00" fill="#000000">Register</text>
</g>
<!-- RegisterModule -->
<g id="node2" class="node">
<title>RegisterModule</title>
<polygon fill="#8dd3c7" stroke="#000000" points="328.2022,-187 325.2022,-191 304.2022,-191 301.2022,-187 221.7978,-187 221.7978,-151 328.2022,-151 328.2022,-187"/>
<text text-anchor="middle" x="275" y="-164.8" font-family="Times,serif" font-size="14.00" fill="#000000">RegisterModule</text>
</g>
<!-- Register&#45;&gt;RegisterModule -->
<g id="edge1" class="edge">
<title>Register&#45;&gt;RegisterModule</title>
<path fill="none" stroke="#000000" d="M328.7254,-104C321.7251,-104 316.3274,-104 316.3274,-104 316.3274,-104 316.3274,-140.8939 316.3274,-140.8939"/>
<polygon fill="#000000" stroke="#000000" points="312.8274,-140.8938 316.3274,-150.8939 319.8274,-140.8939 312.8274,-140.8938"/>
</g>
<!-- Register  -->
<g id="node4" class="node">
<title>Register </title>
<polygon fill="#fb8072" stroke="#000000" points="308.1524,-252 241.8476,-252 241.8476,-216 308.1524,-216 308.1524,-252"/>
<text text-anchor="middle" x="275" y="-229.8" font-family="Times,serif" font-size="14.00" fill="#000000">Register </text>
</g>
<!-- RegisterModule&#45;&gt;Register  -->
<g id="edge3" class="edge">
<title>RegisterModule&#45;&gt;Register </title>
<path fill="none" stroke="#000000" stroke-dasharray="5,2" d="M275,-187.1061C275,-187.1061 275,-205.991 275,-205.991"/>
<polygon fill="#000000" stroke="#000000" points="271.5001,-205.9909 275,-215.991 278.5001,-205.991 271.5001,-205.9909"/>
</g>
<!-- IonicPageModule.forChild(args) -->
<g id="node3" class="node">
<title>IonicPageModule.forChild(args)</title>
<polygon fill="#8dd3c7" stroke="#000000" points="304.6074,-122 301.6074,-126 280.6074,-126 277.6074,-122 105.3926,-122 105.3926,-86 304.6074,-86 304.6074,-122"/>
<text text-anchor="middle" x="205" y="-99.8" font-family="Times,serif" font-size="14.00" fill="#000000">IonicPageModule.forChild(args)</text>
</g>
<!-- IonicPageModule.forChild(args)&#45;&gt;RegisterModule -->
<g id="edge2" class="edge">
<title>IonicPageModule.forChild(args)&#45;&gt;RegisterModule</title>
<path fill="none" stroke="#000000" d="M263.2264,-122.1061C263.2264,-122.1061 263.2264,-140.991 263.2264,-140.991"/>
<polygon fill="#000000" stroke="#000000" points="259.7264,-140.9909 263.2264,-150.991 266.7264,-140.991 259.7264,-140.9909"/>
</g>
</g>
</svg>
